<svg width="246" height="66" viewBox="0 0 246 66" fill="none" xmlns="http://www.w3.org/2000/svg">
<path d="M83.0964 48.021L84.5264 45.4298H85.4302L83.5139 48.799V51.619H82.6959V48.799L80.7797 45.4298H81.672L83.0964 48.021Z" fill="#777777"/>
<path d="M92.8263 48.5239C92.8263 48.9644 92.7634 49.3876 92.6375 49.7881C92.5117 50.1885 92.3344 50.5374 92.0941 50.8234C91.8596 51.1208 91.5679 51.3439 91.2304 51.4927C90.8929 51.6414 90.5383 51.7157 90.1722 51.7157C89.8061 51.7157 89.4571 51.6414 89.1139 51.4927C88.7707 51.3439 88.4847 51.1208 88.2502 50.8234C88.0157 50.5317 87.8326 50.1885 87.7068 49.7881C87.5809 49.3876 87.518 48.9644 87.518 48.5239C87.518 48.0835 87.5809 47.6659 87.7068 47.2598C87.8326 46.8593 88.01 46.5104 88.2502 46.213C88.4904 45.9212 88.7764 45.7039 89.1139 45.5494C89.4514 45.395 89.8061 45.3206 90.1722 45.3206C90.5383 45.3206 90.8872 45.395 91.2304 45.5494C91.5736 45.7039 91.8596 45.927 92.0941 46.213C92.3344 46.5104 92.5117 46.8593 92.6375 47.2598C92.7634 47.6602 92.8263 48.0835 92.8263 48.5239ZM91.9969 48.5239C91.9969 48.175 91.9511 47.8375 91.8596 47.5114C91.7681 47.1854 91.6422 46.9051 91.4764 46.6763C91.3105 46.4475 91.116 46.2816 90.8815 46.1615C90.6527 46.0471 90.4124 45.9899 90.1722 45.9899C89.9262 45.9899 89.6917 46.0471 89.4629 46.1615C89.2341 46.2759 89.0339 46.4475 88.868 46.6763C88.7021 46.9051 88.5763 47.1854 88.4847 47.5114C88.3932 47.8375 88.3474 48.175 88.3474 48.5239C88.3474 48.8728 88.3932 49.2103 88.4847 49.5306C88.5763 49.8567 88.7021 50.1313 88.868 50.3658C89.0339 50.5889 89.2283 50.7605 89.4629 50.8806C89.6917 50.995 89.9319 51.0522 90.1722 51.0522C90.4124 51.0522 90.6527 50.995 90.8815 50.8806C91.1103 50.7662 91.3105 50.5946 91.4764 50.3658C91.6422 50.1313 91.7681 49.8567 91.8596 49.5306C91.9511 49.2046 91.9969 48.8671 91.9969 48.5239Z" fill="#777777"/>
<path d="M99.6904 51.6242H98.7695L96.327 46.6935V51.6242H95.5434V45.4293H96.4529L98.9068 50.3715V45.4293H99.6904V51.6242V51.6242Z" fill="#777777"/>
<path d="M106.103 49.931C106.103 50.5374 105.903 50.9893 105.508 51.281C105.113 51.5727 104.575 51.7214 103.9 51.7214C103.643 51.7214 103.386 51.6928 103.123 51.6356C102.859 51.5784 102.625 51.5155 102.425 51.4526V50.6174C102.631 50.7147 102.848 50.7948 103.071 50.8634C103.203 50.9035 103.351 50.9435 103.511 50.9778C103.672 51.0121 103.826 51.0293 103.975 51.0293C104.141 51.0293 104.295 51.0121 104.438 50.9835C104.581 50.9549 104.718 50.8977 104.839 50.8119C104.953 50.7433 105.056 50.646 105.142 50.5145C105.228 50.3886 105.268 50.2285 105.268 50.0397C105.268 49.8624 105.228 49.7079 105.147 49.5821C105.067 49.4563 104.976 49.3476 104.873 49.2561C104.65 49.073 104.41 48.9186 104.164 48.7984C103.986 48.7069 103.797 48.604 103.592 48.4953C103.386 48.3866 103.185 48.255 102.997 48.1063C102.808 47.9633 102.653 47.7917 102.539 47.6029C102.425 47.4142 102.367 47.1968 102.367 46.9508C102.367 46.3903 102.545 45.9784 102.899 45.7153C103.254 45.4522 103.712 45.3263 104.272 45.3263C104.415 45.3263 104.564 45.3378 104.707 45.3606C104.85 45.3835 104.982 45.4121 105.102 45.4407C105.325 45.4922 105.536 45.5494 105.731 45.6123V46.3845C105.571 46.2987 105.348 46.2129 105.056 46.1214C104.764 46.0356 104.484 45.9899 104.209 45.9899C103.923 45.9899 103.683 46.0699 103.483 46.2244C103.283 46.3788 103.185 46.6019 103.185 46.8822C103.185 47.0023 103.214 47.111 103.277 47.2025C103.34 47.294 103.409 47.3799 103.489 47.4542C103.58 47.54 103.683 47.6201 103.792 47.6887C103.906 47.7574 104.021 47.826 104.141 47.8947C104.558 48.1006 104.873 48.2722 105.085 48.4095C105.296 48.541 105.468 48.6726 105.611 48.7927C105.754 48.9186 105.874 49.073 105.96 49.2503C106.04 49.4334 106.091 49.6565 106.103 49.931Z" fill="#777777"/>
<path d="M112.16 51.6242H108.734V45.4293H112.092V46.1329H109.558V48.0377H111.983V48.7413H109.558V50.9206H112.166V51.6242H112.16Z" fill="#777777"/>
<path d="M115.787 51.6242H114.963V45.4293H115.787V51.6242Z" fill="#777777"/>
<path d="M123.337 45.4293H124.722C124.899 45.4293 125.088 45.4408 125.294 45.4579C125.5 45.4751 125.683 45.5037 125.843 45.538C126.1 45.6009 126.335 45.7153 126.552 45.8755C126.77 46.0357 126.964 46.2416 127.136 46.4818C127.307 46.7164 127.445 47.0024 127.548 47.3398C127.65 47.6831 127.702 48.0777 127.702 48.5239C127.702 48.9586 127.65 49.3476 127.548 49.6908C127.445 50.034 127.307 50.3258 127.136 50.5546C126.964 50.7948 126.77 51.0007 126.552 51.1609C126.335 51.3211 126.095 51.4355 125.843 51.4984C125.683 51.5327 125.5 51.5613 125.294 51.5785C125.088 51.6013 124.893 51.6071 124.722 51.6071H123.337V45.4293ZM124.15 46.1329V50.9206H124.745C124.859 50.9206 125.008 50.9149 125.179 50.9035C125.351 50.892 125.488 50.8749 125.591 50.8406C125.723 50.8062 125.866 50.7376 126.015 50.6289C126.163 50.5202 126.306 50.3715 126.438 50.1828C126.564 49.9997 126.672 49.7709 126.758 49.5021C126.844 49.2332 126.884 48.9072 126.884 48.5354C126.884 48.1464 126.838 47.8203 126.758 47.5515C126.678 47.2826 126.569 47.0596 126.438 46.8765C126.306 46.6877 126.163 46.539 126.015 46.4303C125.866 46.3217 125.723 46.253 125.591 46.2187C125.488 46.1901 125.351 46.1672 125.179 46.1558C125.008 46.1443 124.859 46.1386 124.745 46.1386H124.15V46.1329Z" fill="#777777"/>
<path d="M133.863 51.6242H130.436V45.4293H133.794V46.1329H131.26V48.0377H133.685V48.7413H131.26V50.9206H133.868V51.6242H133.863Z" fill="#777777"/>
<path d="M140.092 49.931C140.092 50.5374 139.892 50.9893 139.497 51.281C139.102 51.5727 138.564 51.7214 137.89 51.7214C137.632 51.7214 137.375 51.6928 137.112 51.6356C136.848 51.5784 136.614 51.5155 136.414 51.4526V50.6174C136.62 50.7147 136.837 50.7948 137.06 50.8634C137.192 50.9035 137.34 50.9435 137.501 50.9778C137.661 51.0121 137.815 51.0293 137.964 51.0293C138.13 51.0293 138.284 51.0121 138.427 50.9835C138.57 50.9549 138.707 50.8977 138.828 50.8119C138.942 50.7433 139.045 50.646 139.131 50.5145C139.217 50.3886 139.257 50.2285 139.257 50.0397C139.257 49.8624 139.217 49.7079 139.136 49.5821C139.056 49.4563 138.965 49.3476 138.862 49.2561C138.639 49.073 138.399 48.9186 138.153 48.7984C137.975 48.7069 137.787 48.604 137.581 48.4953C137.375 48.3866 137.174 48.255 136.986 48.1063C136.797 47.9633 136.643 47.7917 136.528 47.6029C136.414 47.4142 136.357 47.1968 136.357 46.9508C136.357 46.3903 136.534 45.9784 136.888 45.7153C137.243 45.4522 137.701 45.3263 138.261 45.3263C138.404 45.3263 138.553 45.3378 138.696 45.3606C138.839 45.3835 138.971 45.4121 139.091 45.4407C139.314 45.4922 139.525 45.5494 139.72 45.6123V46.3845C139.56 46.2987 139.337 46.2129 139.045 46.1214C138.753 46.0356 138.473 45.9899 138.198 45.9899C137.912 45.9899 137.672 46.0699 137.472 46.2244C137.272 46.3788 137.174 46.6019 137.174 46.8822C137.174 47.0023 137.203 47.111 137.266 47.2025C137.329 47.294 137.398 47.3799 137.478 47.4542C137.569 47.54 137.672 47.6201 137.781 47.6887C137.895 47.7574 138.01 47.826 138.13 47.8947C138.547 48.1006 138.862 48.2722 139.074 48.4095C139.285 48.541 139.457 48.6726 139.6 48.7927C139.743 48.9186 139.863 49.073 139.949 49.2503C140.029 49.4334 140.08 49.6565 140.092 49.931Z" fill="#777777"/>
<path d="M143.575 51.6242H142.752V45.4293H143.575V51.6242Z" fill="#777777"/>
<path d="M150.96 47.2025H150.096C150.096 46.9623 150.062 46.7735 149.993 46.6362C149.925 46.499 149.833 46.3788 149.724 46.2816C149.616 46.1958 149.49 46.1272 149.353 46.0814C149.215 46.0356 149.072 46.007 148.935 46.0013C148.701 46.0013 148.472 46.0528 148.254 46.15C148.037 46.2473 147.848 46.4017 147.677 46.6076C147.505 46.8193 147.373 47.0939 147.276 47.4256C147.179 47.7574 147.133 48.0834 147.133 48.4152C147.133 48.6268 147.162 48.8843 147.213 49.1817C147.265 49.4792 147.368 49.7766 147.517 50.0626C147.654 50.3257 147.86 50.5488 148.123 50.7376C148.386 50.9263 148.723 51.0236 149.141 51.0236C149.358 51.0236 149.57 51.0007 149.77 50.9492C149.97 50.8977 150.079 50.8691 150.096 50.852V48.9758H148.701V48.2608H150.914V51.2467C150.611 51.4068 150.308 51.527 150.01 51.6013C149.713 51.6757 149.364 51.71 148.964 51.71C148.495 51.71 148.094 51.6128 147.757 51.4126C147.419 51.2181 147.139 50.9607 146.916 50.6461C146.693 50.3257 146.533 49.9768 146.435 49.5936C146.338 49.2103 146.292 48.8156 146.292 48.4095C146.292 48.0034 146.344 47.6201 146.441 47.2483C146.544 46.8822 146.704 46.5562 146.927 46.2702C147.145 45.9899 147.425 45.7611 147.757 45.578C148.089 45.395 148.483 45.3035 148.935 45.3035C149.21 45.3035 149.467 45.3492 149.713 45.4407C149.959 45.5323 150.176 45.6524 150.354 45.8125C150.537 45.9727 150.685 46.1672 150.794 46.3846C150.903 46.6134 150.96 46.8822 150.96 47.2025Z" fill="#777777"/>
<path d="M158.001 51.6242H157.081L154.638 46.6935V51.6242H153.854V45.4293H154.764L157.218 50.3715V45.4293H158.001V51.6242Z" fill="#777777"/>
<path d="M165.512 45.4293H166.896C167.074 45.4293 167.262 45.4408 167.468 45.4579C167.674 45.4751 167.857 45.5037 168.017 45.538C168.275 45.6009 168.509 45.7153 168.727 45.8755C168.944 46.0357 169.139 46.2416 169.31 46.4818C169.482 46.7164 169.619 47.0024 169.722 47.3398C169.825 47.6831 169.876 48.0777 169.876 48.5239C169.876 48.9586 169.825 49.3476 169.722 49.6908C169.619 50.034 169.482 50.3258 169.31 50.5546C169.139 50.7948 168.944 51.0007 168.727 51.1609C168.509 51.3211 168.269 51.4355 168.017 51.4984C167.857 51.5327 167.674 51.5613 167.468 51.5785C167.262 51.6013 167.068 51.6071 166.896 51.6071H165.512V45.4293ZM166.324 46.1329V50.9206H166.919C167.034 50.9206 167.182 50.9149 167.354 50.9035C167.525 50.892 167.663 50.8749 167.766 50.8406C167.897 50.8062 168.04 50.7376 168.189 50.6289C168.338 50.5202 168.481 50.3715 168.612 50.1828C168.738 49.9997 168.847 49.7709 168.933 49.5021C169.018 49.2332 169.058 48.9072 169.058 48.5354C169.058 48.1464 169.013 47.8203 168.933 47.5515C168.853 47.2826 168.744 47.0596 168.612 46.8765C168.481 46.6877 168.338 46.539 168.189 46.4303C168.04 46.3217 167.897 46.253 167.766 46.2187C167.663 46.1901 167.525 46.1672 167.354 46.1558C167.182 46.1443 167.034 46.1386 166.919 46.1386H166.324V46.1329Z" fill="#777777"/>
<path d="M176.037 51.6242H172.611V45.4293H175.968V46.1329H173.434V48.0377H175.86V48.7413H173.434V50.9206H176.043V51.6242H176.037Z" fill="#777777"/>
<path d="M182.958 51.6242H182.037L179.595 46.6935V51.6242H178.811V45.4293H179.721L182.175 50.3715V45.4293H182.958V51.6242Z" fill="#777777"/>
<path d="M190 46.1329H188.175V51.6242H187.357V46.1329H185.532V45.4293H190V46.1329Z" fill="#777777"/>
<path d="M196.355 51.6242H195.497L194.885 49.7194H192.826L192.225 51.6242H191.367L193.438 45.4293H194.284L196.355 51.6242ZM194.668 49.0158L193.867 46.4704L193.054 49.0158H194.668Z" fill="#777777"/>
<path d="M202.292 51.6242H198.855V45.4293H199.673V50.9206H202.292V51.6242Z" fill="#777777"/>
<path d="M213.738 47.2026H212.875C212.875 46.9623 212.84 46.7735 212.772 46.6363C212.703 46.499 212.612 46.3789 212.503 46.2816C212.394 46.1958 212.268 46.1272 212.131 46.0814C211.994 46.0356 211.851 46.007 211.714 46.0013C211.479 46.0013 211.25 46.0528 211.039 46.15C210.827 46.2473 210.632 46.4017 210.455 46.6077C210.283 46.8193 210.152 47.0939 210.055 47.4256C209.957 47.7574 209.912 48.0892 209.912 48.4209C209.912 48.6383 209.935 48.89 209.992 49.1874C210.043 49.4849 210.146 49.7823 210.295 50.0683C210.449 50.3372 210.65 50.5603 210.913 50.749C211.17 50.9378 211.508 51.0293 211.919 51.0293C212.211 51.0293 212.491 50.9778 212.76 50.8806C213.029 50.7834 213.287 50.6404 213.544 50.463V51.3153C213.47 51.3554 213.39 51.3954 213.298 51.4412C213.206 51.4869 213.086 51.527 212.943 51.567C212.589 51.6643 212.194 51.7157 211.748 51.7157C211.279 51.7157 210.878 51.6185 210.547 51.424C210.215 51.2295 209.929 50.9721 209.7 50.6575C209.471 50.3429 209.305 49.9883 209.22 49.605C209.128 49.2218 209.082 48.8271 209.082 48.4209C209.082 48.0148 209.134 47.6258 209.231 47.2598C209.334 46.8879 209.494 46.5619 209.717 46.2759C209.935 45.9956 210.215 45.7668 210.547 45.5838C210.878 45.4007 211.273 45.3092 211.725 45.3092C212 45.3092 212.257 45.3549 212.503 45.4465C212.749 45.538 212.966 45.6581 213.144 45.8183C213.327 45.9784 213.475 46.1729 213.584 46.3903C213.681 46.6134 213.738 46.8822 213.738 47.2026Z" fill="#777777"/>
<path d="M219.83 51.6242H216.393V45.4293H217.211V50.9206H219.83V51.6242Z" fill="#777777"/>
<path d="M223.177 51.6242H222.353V45.4293H223.177V51.6242Z" fill="#777777"/>
<path d="M230.315 51.6242H229.394L226.952 46.6935V51.6242H226.168V45.4293H227.078L229.532 50.3715V45.4293H230.315V51.6242Z" fill="#777777"/>
<path d="M234.131 51.6242H233.307V45.4293H234.131V51.6242Z" fill="#777777"/>
<path d="M241.515 47.2026H240.652C240.652 46.9623 240.617 46.7735 240.549 46.6363C240.48 46.499 240.389 46.3789 240.28 46.2816C240.171 46.1958 240.045 46.1272 239.908 46.0814C239.771 46.0356 239.628 46.007 239.49 46.0013C239.256 46.0013 239.027 46.0528 238.816 46.15C238.604 46.2473 238.409 46.4017 238.232 46.6077C238.06 46.8193 237.929 47.0939 237.832 47.4256C237.734 47.7574 237.689 48.0892 237.689 48.4209C237.689 48.6383 237.712 48.89 237.769 49.1874C237.82 49.4849 237.923 49.7823 238.072 50.0683C238.226 50.3372 238.427 50.5603 238.69 50.749C238.947 50.9378 239.285 51.0293 239.696 51.0293C239.988 51.0293 240.268 50.9778 240.537 50.8806C240.806 50.7834 241.064 50.6404 241.321 50.463V51.3153C241.247 51.3554 241.166 51.3954 241.075 51.4412C240.983 51.4869 240.863 51.527 240.72 51.567C240.366 51.6643 239.971 51.7157 239.525 51.7157C239.056 51.7157 238.655 51.6185 238.324 51.424C237.992 51.2295 237.706 50.9721 237.477 50.6575C237.248 50.3429 237.082 49.9883 236.997 49.605C236.905 49.2218 236.859 48.8271 236.859 48.4209C236.859 48.0148 236.911 47.6258 237.008 47.2598C237.111 46.8879 237.271 46.5619 237.494 46.2759C237.712 45.9956 237.992 45.7668 238.324 45.5838C238.655 45.4007 239.05 45.3092 239.502 45.3092C239.776 45.3092 240.034 45.3549 240.28 45.4465C240.526 45.538 240.743 45.6581 240.921 45.8183C241.104 45.9784 241.252 46.1729 241.361 46.3903C241.458 46.6134 241.515 46.8822 241.515 47.2026Z" fill="#777777"/>
<path d="M82.9133 12.8875C84.8353 12.8875 86.4369 13.4995 87.7182 14.7236L87.7754 14.7808H94.222V10.7939H97.2766V30.4139H94.222V23.8529H87.4951C86.2539 24.9455 84.7266 25.4946 82.9133 25.4946C80.9913 25.4946 79.3897 24.8826 78.1084 23.6585C76.8271 22.4344 76.1864 20.9471 76.1864 19.191C76.1864 17.4407 76.8271 15.9477 78.1084 14.7236C79.3897 13.4995 80.9913 12.8875 82.9133 12.8875ZM82.9133 15.513C81.8551 15.513 80.9913 15.8734 80.3106 16.5884C79.63 17.3034 79.2925 18.1729 79.2925 19.191C79.2925 20.2092 79.63 21.0787 80.3106 21.7937C80.9913 22.5087 81.8551 22.8691 82.9133 22.8691C83.9658 22.8691 84.8353 22.5087 85.516 21.7937C86.1967 21.0787 86.5342 20.2092 86.5342 19.191C86.5342 18.1729 86.1967 17.3091 85.516 16.5884C84.8353 15.8734 83.9715 15.513 82.9133 15.513ZM97.4425 37.7071H82.8847V28.3776H85.9679V35.0472H97.4482V37.7071H97.4425ZM89.4171 17.435C89.5658 17.9841 89.6459 18.5675 89.6459 19.1853C89.6459 19.9003 89.5429 20.5696 89.337 21.1931H94.2277V17.435H89.4171V17.435Z" fill="#12429F"/>
<path d="M107.733 20.7984L113.219 28.1774L110.845 29.8762L106.52 23.9101C105.411 26.1696 103.826 28.2346 101.773 30.0993L99.5932 28.3204C103.306 24.6995 105.268 20.5925 105.473 15.9935V13.5338H108.528V15.1183C108.505 17.1146 108.242 19.008 107.733 20.7984ZM110.078 19.1624H114.403V11.3602H117.371V35.3046H114.403V21.8166H110.078V19.1624ZM122.605 36.9978H119.608V10.7939H122.605V36.9978Z" fill="#12429F"/>
<path d="M140.046 28.8009H126.335V14.2145H138.153V16.8744H129.418V26.141H140.046V28.8009V28.8009ZM146.041 36.9978H142.958V10.7939H146.041V36.9978Z" fill="#12429F"/>
<path d="M158.619 22.1026L164.328 27.7541L162.177 29.7046L156.892 24.362C155.199 26.3412 153.054 28.2002 150.474 29.9334L148.437 27.9829C153.769 24.2534 156.909 20.5467 157.853 16.8744H149.993V14.2431H161.525C161.193 17.0288 160.221 19.6486 158.619 22.1026ZM173.32 23.2867H168.853V36.9978H165.769V10.7939H168.853V20.4895H173.32V23.2867Z" fill="#12429F"/>
<path d="M180.979 12.8875C182.901 12.8875 184.509 13.4995 185.801 14.7236C187.094 15.9477 187.74 17.435 187.74 19.191C187.74 20.9414 187.094 22.4344 185.801 23.6585C184.509 24.8826 182.901 25.4946 180.979 25.4946C179.057 25.4946 177.45 24.8826 176.157 23.6585C174.864 22.4344 174.224 20.9471 174.224 19.191C174.224 17.4407 174.87 15.9477 176.157 14.7236C177.45 13.4995 179.057 12.8875 180.979 12.8875ZM180.979 15.513C179.921 15.513 179.052 15.8734 178.365 16.5884C177.679 17.3034 177.335 18.1729 177.335 19.191C177.335 20.2092 177.679 21.0787 178.365 21.7937C179.052 22.5087 179.927 22.8691 180.979 22.8691C182.032 22.8691 182.907 22.5087 183.593 21.7937C184.28 21.0787 184.623 20.2092 184.623 19.191C184.623 18.1729 184.28 17.3091 183.593 16.5884C182.907 15.8734 182.037 15.513 180.979 15.513ZM194.719 37.7071H180.161V28.2918H183.244V35.0472H194.725V37.7071H194.719ZM191.47 30.1851V10.7939H194.553V30.1851H191.47Z" fill="#12429F"/>
<path d="M207.612 23.0636L213.012 27.7255L210.947 29.7904L205.747 25.1571C203.94 26.9075 201.589 28.5606 198.706 30.1051L196.784 28.1259C202.041 25.1285 205.227 22.257 206.342 19.5056H198.54V16.8458H210.243C210.129 17.6008 209.952 18.3616 209.706 19.1338C209.271 20.4895 208.573 21.7994 207.612 23.0636ZM208.659 15.3471H204.758C202.893 15.3471 201.263 14.941 199.867 14.1287L200.714 11.8407C202.407 12.3898 203.917 12.6586 205.238 12.6586H208.659V15.3471V15.3471ZM218.017 36.9978H214.934V10.7939H218.017V36.9978Z" fill="#12429F"/>
<path d="M225.957 28.3204V20.9128H229.04V28.3204C230.018 28.3032 231.208 28.2746 232.603 28.2346C234.319 28.1774 236.087 27.9714 237.917 27.6111V30.2709C236.241 30.6313 234.537 30.8372 232.815 30.8944C231.093 30.9516 229.577 30.9802 228.279 30.9802H220.563V28.3204H225.957V28.3204ZM235.372 13.9285C235.372 16.5483 235.269 18.7563 235.063 20.5581C234.857 22.36 234.583 24.0417 234.245 25.6033H231.191C231.454 24.2648 231.705 22.8119 231.94 21.2331C232.174 19.6544 232.295 18.1099 232.295 16.5827H222.485V13.9228H235.372V13.9285ZM246 23.5727H241.533V37.0035H238.449V10.7939H241.533V20.9128H246V23.5727Z" fill="#12429F"/>
<path d="M43.7648 58.2138C44.1308 58.0422 44.2853 57.5903 44.1022 57.2071C43.9192 56.8238 43.4673 56.6579 43.1069 56.8352C42.7466 57.0126 42.5864 57.4702 42.7694 57.8477C42.9525 58.231 43.3987 58.3911 43.7648 58.2138Z" fill="#12429F"/>
<path d="M12.1267 50.3028C12.0809 50.3372 12.0409 50.3772 11.9951 50.4058C12.2411 50.6861 12.5328 51.0236 12.5328 51.0236L12.8817 50.7261C12.8817 50.7261 12.5671 50.3715 12.3269 50.0912C12.2639 50.1713 12.1953 50.2399 12.1267 50.3028Z" fill="#12429F"/>
<path d="M10.5708 48.5181C10.2162 48.827 10.159 49.3418 10.445 49.6622C10.7253 49.9882 11.2458 50.0054 11.5947 49.6965C11.9494 49.3933 12.0008 48.8728 11.7206 48.5525C11.4288 48.2264 10.9197 48.2093 10.5708 48.5181Z" fill="#12429F"/>
<path d="M6.33217 22.5659C5.66863 22.36 5.02798 22.3829 4.53605 22.6346C4.14708 22.8348 3.88395 23.1608 3.74667 23.567C3.5865 24.0818 3.54074 25.0313 5.07946 25.5175C6.32645 25.9122 7.41899 25.4775 7.74504 24.4479C7.80224 24.2648 7.87088 23.8987 7.6764 23.5155C7.47047 23.1036 7.01858 22.7833 6.33217 22.5659Z" fill="#12429F"/>
<path d="M52.179 12.6358C52.3449 12.8017 52.4136 12.836 52.5337 12.8589C52.6881 12.8818 53.0085 12.8589 53.3974 12.4699C53.9923 11.8693 53.7464 11.3202 53.5118 11.0856L53.3002 10.8854L51.8644 12.3326L52.179 12.6358Z" fill="#12429F"/>
<path d="M32.4961 0C14.5806 0 0 14.5749 0 32.4903C0 50.4115 14.5806 65.0036 32.4961 65.0036C50.423 65.0036 64.9921 50.4115 64.9921 32.4903C64.9921 14.5749 50.423 0 32.4961 0ZM59.1805 18.4474L59.375 18.3502L60.2215 20.0834L60.0213 20.1806C59.8555 19.8374 59.7811 19.7173 59.5123 19.8546C59.5123 19.8546 56.5607 21.3018 56.2346 21.4677C55.9143 21.6221 56.1088 21.931 56.2461 22.2056L56.0573 22.2971L55.1421 20.4323L55.3423 20.3351C55.5082 20.6668 55.5825 20.8041 55.8571 20.6726C55.8571 20.6726 58.9574 19.151 59.1347 19.0595C59.4837 18.8822 59.1805 18.4474 59.1805 18.4474ZM55.1535 16.8687L55.1764 16.5197C55.2336 15.696 55.4395 15.2213 55.88 14.9124C56.4691 14.512 57.2128 14.7293 57.7047 15.4444C58.1108 16.045 58.0937 16.331 58.0937 16.331L57.2528 16.903L57.1041 16.6799C57.1041 16.6799 57.3672 16.5598 57.4587 16.2623C57.5045 16.1193 57.5388 15.8905 57.3386 15.5988C57.1098 15.2613 56.7723 15.1698 56.4863 15.37C56.2918 15.5016 56.1889 15.6903 56.1488 16.3539L56.1374 16.5655C56.0802 17.5208 55.8857 17.9784 55.3938 18.3159C55.1707 18.4646 54.7131 18.682 54.1411 18.4417C53.8493 18.3159 53.5919 18.0928 53.3688 17.761C53.1629 17.4578 52.9341 17.006 52.9856 16.7428L53.9523 16.0793L54.0838 16.2852C54.0838 16.2852 53.8264 16.5197 53.7578 16.6055C53.4318 17.0117 53.6091 17.4006 53.7464 17.6008C54.0266 18.0127 54.4499 18.047 54.7016 17.8754C54.959 17.7095 55.1192 17.475 55.1535 16.8687ZM52.568 9.62698L53.8608 10.9083C54.1239 11.1771 54.4099 11.4917 54.49 11.915C54.5243 12.0866 54.5129 12.5042 54.1925 12.836C53.8379 13.1906 53.3746 13.3222 52.6595 13.2535C52.6481 13.3222 52.6252 13.5453 52.6252 13.5453C52.5451 14.2717 52.4822 14.838 52.4765 15.2899C52.4708 15.7532 52.6081 15.9592 52.6595 16.0393L52.7625 16.1651L52.6195 16.3081L52.1733 15.8734C51.9331 15.6274 51.8416 15.5016 51.7786 15.3128C51.6928 15.0268 51.7214 14.6721 51.813 14.0601L51.9846 13.0019L51.5899 12.6072L50.6174 13.5968C50.36 13.8484 50.646 14.0715 50.8691 14.2946L50.7204 14.4491L49.2503 12.9847L49.4048 12.8188C49.6736 13.0877 49.788 13.1906 49.9997 12.9733C49.9997 12.9733 52.4307 10.5193 52.568 10.3763C52.8426 10.1018 52.4136 9.78715 52.4136 9.78715L52.568 9.62698ZM48.0605 6.45231L50.5774 8.13403L50.0454 8.93485L49.8624 8.81472C50.0397 8.55732 50.1541 8.35139 49.8052 8.11687C49.6507 8.0139 49.0673 7.62494 49.0673 7.62494L48.1864 8.92913L48.9414 9.43822C49.1931 9.60982 49.2561 9.52402 49.4391 9.26089L49.6279 9.38674L48.9128 10.445L48.7298 10.3134C48.9129 10.0503 48.9643 9.95875 48.7069 9.78715L47.9519 9.27805V9.28377L46.9051 10.8454C46.9051 10.8454 47.54 11.2687 47.7116 11.3831C47.9747 11.5604 48.2207 11.5318 48.4781 11.1428L48.6612 11.2744L48.0834 12.1438L45.5094 10.4221L45.6409 10.2219C45.9384 10.4221 46.0528 10.5422 46.3331 10.1189C46.3331 10.1189 47.969 7.6707 48.215 7.29889C48.4552 6.94424 48.1063 6.73832 47.9404 6.62963L48.0605 6.45231ZM42.186 3.59796L43.8219 4.30726L43.7361 4.5189L43.5702 4.45026C43.4902 4.41594 43.433 4.44454 43.4215 4.4617C43.3758 4.49602 43.3815 4.59327 43.3758 4.63331L43.3414 5.27968C43.3071 6.01186 43.2213 7.69358 43.2213 7.8137C43.33 7.71074 44.0679 6.97284 44.0679 6.97284L45.3778 5.65721C45.4579 5.55997 45.5322 5.46273 45.5494 5.38836C45.5608 5.33688 45.5208 5.29112 45.4693 5.26252L45.3034 5.19388L45.395 4.99367L46.7907 5.60573L46.7335 5.82881L46.579 5.76017C46.2816 5.62861 45.9899 5.88602 45.9899 5.88602L45.0918 6.69255L42.6035 8.98633L42.4205 8.90053L42.4949 4.51318C42.5063 4.29582 42.472 4.10705 42.4091 4.00981C42.329 3.89541 42.1002 3.79817 42.1002 3.79817L42.186 3.59796ZM37.6156 7.11012C37.9817 7.19021 38.1304 7.21881 38.199 6.92136C38.199 6.92136 38.9827 3.5522 39.0227 3.36916C39.1085 2.98019 38.5766 2.94015 38.5766 2.94015L38.6223 2.7285L40.4985 3.16323L40.4585 3.37488C40.0981 3.2948 39.9494 3.2662 39.8808 3.56364C39.8808 3.56364 39.1429 6.77836 39.0571 7.11584C38.977 7.46477 39.3316 7.50481 39.6405 7.57917L39.589 7.79082L37.5698 7.32177L37.6156 7.11012ZM30.9173 6.49807C31.1919 6.51523 31.4722 6.56099 31.5065 6.04618C31.5351 5.51421 31.7467 2.04781 31.7467 2.04781L32.0385 2.07069C32.5533 2.66558 35.0129 5.53709 35.0987 5.63433C35.0987 5.63433 35.2303 3.42064 35.2589 2.94587C35.2875 2.4711 34.91 2.4711 34.6754 2.44822L34.6869 2.23085L36.2885 2.32809L36.2714 2.5569C36.0197 2.53974 35.768 2.4997 35.7394 2.97447C35.7165 3.44924 35.4934 7.00716 35.4934 7.00716L35.1788 6.98428L32.1471 3.47784L31.9927 6.06906C31.9527 6.62391 32.3531 6.58959 32.662 6.60675L32.6505 6.83556L30.9116 6.72688L30.9173 6.49807ZM26.0552 2.80286L26.101 3.02595C25.7349 3.09459 25.5862 3.13463 25.6491 3.43208L26.0666 5.50277C26.2554 6.45231 26.5357 6.70971 26.8045 6.85844C27.102 7.01288 27.3594 6.99572 27.5768 6.94424C27.7198 6.91564 28.0858 6.81268 28.3089 6.48091C28.5549 6.10338 28.4748 5.58857 28.349 4.95935C28.349 4.95935 27.9657 3.04311 27.9543 2.96303C27.8742 2.57978 27.3708 2.76282 27.3708 2.76282L27.3251 2.5569L28.9667 2.22513L29.0068 2.43678C28.6407 2.51686 28.5034 2.55118 28.5606 2.84863L28.9381 4.72483C29.0754 5.42269 29.1441 6.1377 28.7208 6.68111C28.349 7.16733 27.8914 7.30461 27.5367 7.38469C27.2736 7.43617 26.6501 7.56201 26.0895 7.23025C25.6491 6.96712 25.3745 6.49235 25.2143 5.71441C25.2143 5.71441 24.8082 3.69521 24.7911 3.60368C24.711 3.22043 24.2076 3.40348 24.2076 3.40348L24.1618 3.18611L26.0552 2.80286ZM19.2425 5.15384L19.3398 5.34832C19.008 5.51993 18.8822 5.59429 19.0194 5.86886C19.0194 5.86886 20.5238 8.79756 20.6897 9.11217C20.8556 9.4325 21.1588 9.23229 21.4333 9.08357L21.5306 9.27805L19.6887 10.2219L19.5857 10.0331C19.9175 9.86151 20.0548 9.78143 19.9175 9.51258C19.9175 9.51258 18.3387 6.44087 18.2529 6.26354C18.0699 5.91462 17.6352 6.22922 17.6352 6.22922L17.5379 6.03474L19.2425 5.15384ZM15.473 7.21309L16.045 7.99102L15.8676 8.12259C15.6789 7.8709 15.5302 7.6993 15.1927 7.94526C15.0497 8.05395 14.4834 8.47724 14.4834 8.47724L15.4272 9.74139L16.1537 9.19797C16.3996 9.01493 16.3424 8.92341 16.1537 8.66028L16.331 8.53444L17.086 9.55262L16.9144 9.68418C16.7199 9.42678 16.6513 9.3467 16.3996 9.53546L15.6789 10.0732C15.6789 10.0789 15.6789 10.0789 15.6789 10.0789L16.8057 11.5833C16.8057 11.5833 17.4178 11.1257 17.5894 11.0055C17.8411 10.811 17.8926 10.5708 17.6123 10.2047L17.7896 10.0732L18.4245 10.9083L15.942 12.7616L15.799 12.5728C16.085 12.3612 16.2337 12.2983 15.9306 11.8922C15.9306 11.8922 14.1688 9.52974 13.8999 9.17509C13.6368 8.82616 13.3336 9.08929 13.1677 9.21513L13.0419 9.03781L15.473 7.21309ZM10.5937 11.3144C11.0971 10.7824 11.3831 10.7481 11.3831 10.7481L12.1152 11.4517L11.9322 11.6405C11.9322 11.6405 11.7549 11.4174 11.4517 11.3888C11.303 11.3716 11.0685 11.3831 10.8168 11.6405C10.5365 11.9379 10.5193 12.2811 10.771 12.5271C10.9426 12.6873 11.1485 12.7559 11.8006 12.6472L12.0123 12.6129C12.9561 12.4699 13.4366 12.5671 13.8713 12.979C14.0658 13.1677 14.3747 13.5682 14.2603 14.1802C14.2031 14.5005 14.0315 14.7923 13.7569 15.0783C13.5052 15.3471 13.0991 15.656 12.836 15.6674L11.9894 14.8609L12.1553 14.6893C12.1553 14.6893 12.4413 14.8895 12.5385 14.941C13.0076 15.1812 13.3508 14.9238 13.5224 14.7465C13.8656 14.3861 13.8084 13.9628 13.5853 13.7512C13.3737 13.551 13.1105 13.4309 12.5156 13.5224L12.161 13.5739C11.343 13.694 10.8339 13.5853 10.445 13.2135C9.93587 12.7159 9.98735 11.9436 10.5937 11.3144ZM5.66293 18.0642C6.43515 17.8926 10.1304 17.0803 10.2505 17.0574C10.2505 17.0574 8.36283 15.8905 7.9567 15.6331C7.55057 15.3814 7.37325 15.7189 7.24169 15.9191L7.05292 15.8047L7.8995 14.4376L8.08827 14.552C7.95098 14.7694 7.79654 14.9696 8.20267 15.227C8.6088 15.473 11.6405 17.3434 11.6405 17.3434L11.4746 17.618L6.94424 18.6362L9.15793 20.009C9.6327 20.295 9.78715 19.9289 9.94731 19.6715L10.1418 19.7859L9.22085 21.2675L9.03209 21.153C9.17509 20.9185 9.3467 20.6954 8.90625 20.4209C8.45435 20.1463 5.49705 18.3216 5.49705 18.3216L5.66293 18.0642ZM6.01186 41.1049C5.50849 41.1049 5.10236 40.6873 5.10236 40.1839C5.10236 39.6863 5.50849 39.2687 6.01186 39.2687C6.52095 39.2687 6.92708 39.6863 6.92708 40.1839C6.92708 40.6873 6.52095 41.1049 6.01186 41.1049ZM6.82984 30.986L6.62391 30.9631C6.65251 30.6656 6.66395 30.4483 6.26926 30.4197C5.87458 30.3853 5.25108 30.3281 5.25108 30.3281C4.93647 30.2995 4.81063 30.3396 4.61615 30.4025C4.53034 30.4368 3.12319 31.1232 2.7857 31.3063C2.56834 31.4264 2.39674 31.558 2.32237 31.6724C2.22513 31.8097 2.20797 32.0556 2.20797 32.0556L1.99633 32.0327L2.15077 30.2767L2.36241 30.3053C2.36241 30.3053 2.35097 30.4082 2.35669 30.4425L2.36241 30.4769C2.36813 30.5112 2.39102 30.5226 2.41962 30.5226C2.46538 30.5341 2.57406 30.4883 2.60838 30.4769C2.7571 30.4197 4.41594 29.6532 4.41594 29.6532C4.41594 29.6532 3.01451 28.6922 2.92871 28.6464C2.8143 28.5835 2.72278 28.5435 2.6427 28.5377C2.5855 28.5377 2.53402 28.5721 2.53402 28.6121C2.5283 28.6521 2.52258 28.7723 2.52258 28.7723L2.29377 28.7494L2.43678 27.2049L2.65414 27.2278C2.65414 27.2278 2.6427 27.3365 2.6427 27.3937C2.63698 27.4624 2.64842 27.5482 2.68846 27.6454C2.73422 27.7655 2.79142 27.8284 2.94015 27.9772C3.17467 28.1945 4.51318 29.1727 4.75343 29.3042C4.95363 29.4129 5.13668 29.4301 5.33688 29.4415C5.33688 29.4415 5.89174 29.4873 6.34363 29.533C6.79552 29.5788 6.79552 29.2528 6.82412 28.9095L7.0186 28.9267L6.82984 30.986ZM4.98223 26.4671C4.3473 26.2668 3.82105 25.8321 3.53504 25.2715C3.23759 24.6995 3.20899 24.0188 3.4378 23.2809C3.67232 22.5316 4.09561 21.9825 4.65619 21.6907C5.16528 21.4219 5.77161 21.399 6.41227 21.5992C7.09296 21.8166 7.63066 22.257 7.93382 22.8348C8.23699 23.4239 8.28275 24.1046 8.05395 24.8082C7.53913 26.4442 6.09766 26.816 4.98223 26.4671ZM10.525 53.9809C10.4907 53.9351 7.91666 50.9778 7.87662 50.9321C7.91094 50.8977 8.82044 50.1141 8.82044 50.1141C8.95201 49.9997 9.01493 49.8166 8.95201 49.7423C8.97489 49.7194 9.01493 49.6851 9.03781 49.6679C9.07213 49.7022 9.7185 50.4458 9.7185 50.4458C9.68418 50.4802 8.92913 51.1323 8.92913 51.1323C8.92913 51.1323 10.9827 53.4947 11.0227 53.5347C10.9827 53.5748 10.5708 53.9408 10.525 53.9809ZM11.5604 52.9913C11.5261 52.9513 11.0399 52.3964 11.0055 52.3564C11.0456 52.322 12.0352 51.4583 12.0352 51.4583C12.0352 51.4583 11.5661 50.9206 11.3259 50.6403C10.8511 50.6746 10.342 50.4802 9.99307 50.074C9.41534 49.4162 9.44394 48.4495 10.0503 47.929C10.6509 47.4027 11.6061 47.5057 12.1839 48.1578C12.4985 48.5239 12.6358 48.9758 12.59 49.3991C12.733 49.5649 13.3679 50.2914 13.3679 50.2914L13.5167 50.1598C13.654 50.0454 13.7169 49.8624 13.654 49.788C13.6768 49.7651 13.7169 49.7308 13.7398 49.7079C13.7741 49.748 14.3861 50.4516 14.4205 50.4916C14.3804 50.5202 11.6004 52.957 11.5604 52.9913ZM18.6133 57.2928L18.6019 57.27L18.579 57.2871C17.7667 57.7447 17.1718 57.8077 17.1718 57.8077C17.1604 57.7733 16.9945 57.3615 16.9716 57.31C18.7506 56.7208 19.3512 55.4281 19.3626 55.4052V55.3995C19.54 55.0105 19.334 54.8503 19.3283 54.8446C19.334 54.816 19.3569 54.7588 19.3684 54.7359C19.4198 54.7645 20.4323 55.2279 20.4781 55.2508C20.1692 55.92 19.7345 56.4634 19.1453 56.9096L19.1281 56.921L19.151 56.9725C19.4599 57.5445 19.683 58.0822 19.7745 58.4826C19.7402 58.5055 19.1567 58.8373 19.0824 58.8773C18.9165 57.9221 18.7334 57.5445 18.6133 57.2928ZM19.3283 60.376C19.3512 60.3188 20.6554 57.493 20.6554 57.493C20.6554 57.493 19.9003 57.1441 19.8546 57.1212C19.8775 57.0812 20.1063 56.5778 20.1291 56.5263C20.1749 56.5492 20.93 56.8924 20.93 56.8924L21.3361 56.0058C21.4105 55.8514 21.399 55.6569 21.3132 55.6111H21.3075C21.3189 55.5825 21.3418 55.531 21.359 55.5024C21.4047 55.5253 22.2056 55.8971 22.2056 55.8971C22.177 55.9543 20.0319 60.6334 20.0033 60.6849C19.9633 60.6677 19.3798 60.3932 19.3283 60.376ZM21.0958 61.1825C21.0444 61.1654 20.3751 60.8508 20.3236 60.8336C20.3465 60.7821 22.4973 56.1031 22.5259 56.0459C22.5774 56.063 23.2924 56.3948 23.2924 56.3948H23.2981C23.2695 56.452 21.113 61.1368 21.0958 61.1825ZM34.8756 63.2933C34.8184 63.2933 34.0863 63.2933 34.0291 63.2933C34.0291 63.2361 34.0291 60.1243 34.0291 60.1243H33.6458C33.6458 60.1243 33.6458 63.2418 33.6458 63.2933C33.5943 63.2933 32.9136 63.2933 32.8622 63.2933C32.8622 63.2761 32.8622 62.8471 32.8622 62.2522C32.2787 62.2522 30.0479 62.2522 29.9964 62.2522C29.9964 62.195 29.9964 58.6142 29.9964 58.6142C29.9964 58.4369 29.9049 58.271 29.8076 58.271C29.8076 58.2367 29.8076 58.1852 29.8076 58.1566C29.8591 58.1566 32.13 58.1566 32.1815 58.1566C32.1815 58.2023 32.1815 58.7572 32.1815 58.8087C32.13 58.8087 30.843 58.8087 30.843 58.8087V61.5944C30.843 61.5944 32.3874 61.5944 32.8622 61.5944C32.8622 60.2101 32.8622 58.4826 32.8622 58.4826C32.8622 58.3053 32.7649 58.1394 32.6734 58.1394C32.6734 58.1051 32.6734 58.0536 32.6734 58.025C32.7249 58.025 33.5943 58.025 33.6458 58.025C33.6458 58.0765 33.6458 59.4665 33.6458 59.4665H34.0291C34.0291 59.4665 34.0291 58.0765 34.0291 58.025C34.0863 58.025 34.8756 58.025 34.8756 58.025C34.8756 58.0822 34.8756 63.2361 34.8756 63.2933ZM42.083 58.1795C41.9228 57.842 41.9343 57.4702 42.083 57.127C41.7856 57.27 41.5796 57.3729 41.5682 57.3729C41.5453 57.3329 41.3108 56.8238 41.2822 56.7837C41.3337 56.7609 42.4205 56.2403 42.4205 56.2403L42.4033 56.2117C42.3175 56.0745 42.186 55.9944 42.1116 56.023V56.0287C42.0945 55.9944 42.0716 55.9486 42.0601 55.92C42.1059 55.8971 42.9925 55.4796 42.9925 55.4796C43.0154 55.5196 43.187 55.88 43.187 55.88C43.187 55.88 44.1995 55.388 44.2509 55.3652C44.2681 55.4109 44.5083 55.9086 44.5255 55.9543C44.5141 55.9658 44.291 56.0745 43.9592 56.2289C44.3139 56.3261 44.6227 56.5549 44.7772 56.8867C45.0861 57.5445 44.7429 58.3739 43.9993 58.7343C43.2614 59.0775 42.3976 58.8373 42.083 58.1795ZM46.8536 57.27C46.8078 57.2928 46.1443 57.6132 46.0985 57.6418C46.0757 57.5846 44.9831 55.3308 44.9831 55.3308C44.9088 55.1707 44.7543 55.062 44.6628 55.102V55.1077C44.6514 55.0734 44.6227 55.022 44.6113 54.9991C44.6571 54.9705 45.4979 54.5701 45.5437 54.5472C45.5666 54.5987 46.1843 55.8742 46.1843 55.8742C46.1843 55.8742 46.8822 55.531 46.928 55.5082C46.9508 55.5596 47.1682 56.0001 47.1854 56.0459C47.1339 56.0687 46.436 56.4005 46.436 56.4005C46.436 56.4005 46.825 57.2242 46.8536 57.27ZM47.0595 59.661C47.0366 59.6152 46.5733 58.6371 46.5733 58.6371C46.5733 58.6371 43.4387 60.1357 43.3929 60.1643C43.37 60.1186 43.1298 59.6209 43.1069 59.5695C43.1584 59.5523 46.9966 57.699 47.0538 57.6761C47.0767 57.7276 47.8031 59.2491 47.8317 59.2892C47.7803 59.3178 47.111 59.6381 47.0595 59.661ZM32.4961 56.1831C19.4141 56.1831 8.81472 45.578 8.81472 32.5018C8.81472 19.4141 19.4198 8.81472 32.4961 8.81472C45.578 8.81472 56.1831 19.4141 56.1831 32.5018C56.1831 45.578 45.5723 56.1831 32.4961 56.1831ZM54.4728 53.9122C54.4328 53.8779 54.0095 53.5176 53.9694 53.489C54.0038 53.4546 54.5701 52.7625 54.5701 52.7625L53.5004 51.8816C53.3631 51.7672 53.1686 51.7272 53.1114 51.8072C53.0828 51.7844 53.0485 51.75 53.0199 51.7272C53.0542 51.6928 53.5805 51.0522 53.6148 51.0007C53.6606 51.0407 55.0391 52.1848 55.0391 52.1848L55.3194 51.853C55.3194 51.853 53.9351 50.7033 53.8951 50.6689C53.9294 50.6289 54.3756 50.0912 54.4099 50.0454C54.4499 50.0798 55.8399 51.2295 55.8399 51.2295C55.8399 51.2295 56.0173 51.0064 56.2461 50.7261C55.6397 50.217 53.5118 48.461 53.5118 48.461C53.5118 48.461 51.4354 50.9549 51.4068 50.995C51.3668 50.9664 50.9435 50.6117 50.9035 50.5774C50.9378 50.5316 53.5462 47.3913 53.5462 47.3913H53.5519C53.5862 47.4199 56.1145 49.5077 56.7895 50.0798C56.9725 49.8681 57.1041 49.7022 57.1155 49.6851C57.1498 49.7194 57.5789 50.0798 57.6189 50.1026C57.5903 50.1484 54.5129 53.8665 54.4728 53.9122ZM57.6532 26.324L57.4473 26.3812L56.8581 24.3849L57.0698 24.3277C57.1784 24.6824 57.2242 24.8311 57.5216 24.7453C57.5216 24.7453 60.5934 23.8358 61.1311 23.6813C60.9366 23.0121 60.8908 22.8691 60.8679 22.7947C60.7478 22.3886 60.519 22.4 60.1987 22.4458L60.1357 22.2113L61.0967 22.074L62.2236 25.8893L61.3427 26.2954L61.2683 26.0495C61.5601 25.9179 61.766 25.8035 61.6459 25.4088C61.623 25.3345 61.5772 25.1857 61.3827 24.5222C60.9137 24.6595 58.0822 25.4946 57.7676 25.5862C57.4187 25.6891 57.5617 26.0209 57.6532 26.324ZM59.3006 41.2422C58.7858 41.2422 58.3797 40.8246 58.3797 40.3155C58.3797 39.8064 58.7858 39.3888 59.3006 39.3888C59.8154 39.3888 60.2273 39.8064 60.2273 40.3155C60.2273 40.8246 59.8154 41.2422 59.3006 41.2422ZM62.727 31.9126C62.727 31.8497 62.6926 31.7582 62.6354 31.6781C62.5725 31.5637 62.4982 31.5179 62.3266 31.3978C62.0634 31.2205 60.559 30.5226 60.2959 30.4425C60.0843 30.3682 59.9012 30.3911 59.7125 30.4139C59.7125 30.4139 59.1519 30.4597 58.7057 30.5112C58.2538 30.5512 58.311 30.8658 58.3453 31.2148L58.1509 31.2319L57.9449 29.1841L58.1509 29.1555C58.1795 29.4644 58.2138 29.676 58.6028 29.636C58.9917 29.596 59.6209 29.533 59.6209 29.533C59.9413 29.5044 60.0557 29.4358 60.2273 29.3328C60.3074 29.2928 61.5601 28.349 61.8575 28.1087C62.0463 27.9486 62.1893 27.7827 62.2465 27.6683C62.3151 27.5081 62.2808 27.2679 62.2808 27.2679L62.4982 27.2507L62.6698 28.9839L62.4581 29.0125C62.4581 29.0125 62.4524 28.9095 62.4352 28.8638L62.4238 28.8409C62.4124 28.8066 62.3838 28.8009 62.3666 28.8066C62.3208 28.8066 62.2236 28.8638 62.1893 28.8867C62.0463 28.9725 60.5648 30.0421 60.5648 30.0421C60.5648 30.0421 62.1321 30.7171 62.2236 30.7457C62.3494 30.7915 62.4467 30.8029 62.521 30.7915C62.5782 30.7915 62.6183 30.7457 62.6068 30.7057C62.6068 30.6656 62.5954 30.5455 62.5954 30.5455L62.8242 30.5283L62.9787 32.0728L62.7556 32.0957C62.7498 32.0785 62.7384 31.9641 62.727 31.9126Z" fill="#12429F"/>
<path d="M34.0692 22.6918L40.716 26.3241L43.0784 21.359H36.5746L34.0692 22.6918Z" fill="#12429F"/>
<path d="M44.5084 22.1198L42.4549 26.4327H47.6716L44.5084 22.1198Z" fill="#12429F"/>
<path d="M32.3588 23.6013L27.0277 26.4327H37.5413L32.3588 23.6013Z" fill="#12429F"/>
<path d="M30.6657 22.6689L28.2632 21.359H21.9082L24.1562 26.1296L30.6657 22.6689Z" fill="#12429F"/>
<path d="M29.3043 40.8589L23.2753 28.0515H17.5666L29.3043 40.8589Z" fill="#12429F"/>
<path d="M17.3206 26.4327H22.5145L20.4839 22.1255L17.3206 26.4327Z" fill="#12429F"/>
<path d="M39.8922 28.0515H25.0657L32.4389 43.719L39.8922 28.0515Z" fill="#12429F"/>
<path d="M41.6827 28.0515L35.482 41.0877L47.4314 28.0515H41.6827Z" fill="#12429F"/>
<path d="M31.3979 45.538L17.9785 30.8944L25.8322 51.6127L31.3979 45.538Z" fill="#12429F"/>
<path d="M39.1601 51.6127L47.0196 30.8944L33.5944 45.538L39.1601 51.6127Z" fill="#12429F"/>
<path d="M22.6841 16.3563L21.2806 17.7598L22.6841 19.1633L24.0876 17.7598L22.6841 16.3563Z" fill="#12429F"/>
<path d="M32.4974 13.3741L31.0939 14.7776L32.4974 16.1811L33.9009 14.7776L32.4974 13.3741Z" fill="#12429F"/>
<path d="M42.3092 16.3552L40.9057 17.7587L42.3092 19.1622L43.7127 17.7587L42.3092 16.3552Z" fill="#12429F"/>
</svg>
