<svg width="130" height="34" viewBox="0 0 130 34" fill="none" xmlns="http://www.w3.org/2000/svg">
<path d="M43.9127 25.1173L44.6684 23.762H45.146L44.1334 25.5242V26.9992H43.7011V25.5242L42.6885 23.762H43.16L43.9127 25.1173Z" fill="#777777"/>
<path d="M49.0546 25.3803C49.0546 25.6107 49.0213 25.8321 48.9548 26.0416C48.8883 26.251 48.7946 26.4335 48.6677 26.5831C48.5437 26.7387 48.3896 26.8554 48.2112 26.9331C48.0329 27.0109 47.8454 27.0498 47.652 27.0498C47.4585 27.0498 47.2741 27.0109 47.0928 26.9331C46.9114 26.8554 46.7602 26.7387 46.6363 26.5831C46.5124 26.4305 46.4156 26.251 46.3491 26.0416C46.2826 25.8321 46.2494 25.6107 46.2494 25.3803C46.2494 25.15 46.2826 24.9316 46.3491 24.7191C46.4156 24.5097 46.5094 24.3272 46.6363 24.1716C46.7633 24.019 46.9144 23.9053 47.0928 23.8246C47.2711 23.7438 47.4585 23.7049 47.652 23.7049C47.8454 23.7049 48.0298 23.7438 48.2112 23.8246C48.3926 23.9053 48.5437 24.022 48.6677 24.1716C48.7946 24.3272 48.8883 24.5097 48.9548 24.7191C49.0213 24.9286 49.0546 25.15 49.0546 25.3803ZM48.6163 25.3803C48.6163 25.1978 48.5921 25.0213 48.5437 24.8508C48.4954 24.6802 48.4289 24.5336 48.3412 24.414C48.2535 24.2943 48.1508 24.2075 48.0268 24.1447C47.9059 24.0848 47.7789 24.0549 47.652 24.0549C47.522 24.0549 47.3981 24.0848 47.2772 24.1447C47.1562 24.2045 47.0504 24.2943 46.9628 24.414C46.8751 24.5336 46.8086 24.6802 46.7602 24.8508C46.7119 25.0213 46.6877 25.1978 46.6877 25.3803C46.6877 25.5629 46.7119 25.7394 46.7602 25.9069C46.8086 26.0775 46.8751 26.2211 46.9628 26.3437C47.0504 26.4604 47.1532 26.5502 47.2772 26.613C47.3981 26.6728 47.525 26.7028 47.652 26.7028C47.7789 26.7028 47.9059 26.6728 48.0268 26.613C48.1477 26.5532 48.2535 26.4634 48.3412 26.3437C48.4289 26.2211 48.4954 26.0775 48.5437 25.9069C48.5921 25.7364 48.6163 25.5599 48.6163 25.3803Z" fill="#777777"/>
<path d="M52.682 27.002H52.1954L50.9046 24.4229V27.002H50.4905V23.7617H50.9711L52.2679 26.3467V23.7617H52.682V27.002Z" fill="#777777"/>
<path d="M56.0706 26.1163C56.0706 26.4335 55.9648 26.6698 55.7562 26.8224C55.5476 26.975 55.2635 27.0528 54.9068 27.0528C54.7708 27.0528 54.6347 27.0378 54.4957 27.0079C54.3566 26.978 54.2327 26.9451 54.1269 26.9122V26.4754C54.2357 26.5262 54.3506 26.5681 54.4685 26.604C54.538 26.625 54.6166 26.6459 54.7012 26.6639C54.7859 26.6818 54.8675 26.6908 54.9461 26.6908C55.0338 26.6908 55.1154 26.6818 55.1909 26.6668C55.2665 26.6519 55.3391 26.622 55.4025 26.5771C55.463 26.5412 55.5174 26.4903 55.5628 26.4215C55.6081 26.3557 55.6293 26.2719 55.6293 26.1732C55.6293 26.0804 55.6081 25.9997 55.5658 25.9338C55.5235 25.868 55.4751 25.8112 55.4207 25.7633C55.3028 25.6676 55.1758 25.5868 55.0458 25.5239C54.9521 25.4761 54.8524 25.4222 54.7436 25.3654C54.6347 25.3085 54.5289 25.2397 54.4292 25.1619C54.3294 25.0871 54.2478 24.9974 54.1874 24.8986C54.1269 24.7999 54.0967 24.6862 54.0967 24.5576C54.0967 24.2644 54.1904 24.0489 54.3778 23.9113C54.5652 23.7737 54.807 23.7079 55.1033 23.7079C55.1789 23.7079 55.2574 23.7138 55.333 23.7258C55.4086 23.7378 55.4781 23.7527 55.5416 23.7677C55.6595 23.7946 55.7713 23.8245 55.8741 23.8575V24.2614C55.7895 24.2165 55.6716 24.1716 55.5174 24.1237C55.3632 24.0789 55.2151 24.0549 55.07 24.0549C54.9189 24.0549 54.7919 24.0968 54.6861 24.1776C54.5803 24.2584 54.5289 24.375 54.5289 24.5217C54.5289 24.5845 54.5441 24.6413 54.5773 24.6892C54.6106 24.7371 54.6468 24.7819 54.6892 24.8208C54.7375 24.8657 54.7919 24.9076 54.8494 24.9435C54.9098 24.9794 54.9703 25.0153 55.0338 25.0512C55.2544 25.1589 55.4207 25.2487 55.5325 25.3205C55.6444 25.3893 55.7351 25.4581 55.8106 25.5209C55.8862 25.5868 55.9497 25.6676 55.995 25.7603C56.0373 25.856 56.0645 25.9727 56.0706 26.1163Z" fill="#777777"/>
<path d="M59.2717 27.002H57.4611V23.7617H59.2355V24.1297H57.8963V25.126H59.178V25.494H57.8963V26.6339H59.2748V27.002H59.2717Z" fill="#777777"/>
<path d="M61.1882 27.002H60.7529V23.7617H61.1882V27.002Z" fill="#777777"/>
<path d="M65.1783 23.7617H65.9099C66.0036 23.7617 66.1033 23.7677 66.2121 23.7767C66.321 23.7857 66.4177 23.8006 66.5023 23.8186C66.6384 23.8515 66.7623 23.9113 66.8772 23.9951C66.992 24.0789 67.0948 24.1866 67.1855 24.3122C67.2762 24.4349 67.3487 24.5845 67.4031 24.761C67.4575 24.9405 67.4848 25.147 67.4848 25.3803C67.4848 25.6077 67.4575 25.8112 67.4031 25.9907C67.3487 26.1702 67.2762 26.3228 67.1855 26.4425C67.0948 26.5681 66.992 26.6758 66.8772 26.7596C66.7623 26.8434 66.6353 26.9032 66.5023 26.9361C66.4177 26.9541 66.321 26.969 66.2121 26.978C66.1033 26.99 66.0006 26.993 65.9099 26.993H65.1783V23.7617ZM65.6076 24.1297V26.6339H65.922C65.9824 26.6339 66.061 26.631 66.1517 26.625C66.2424 26.619 66.3149 26.61 66.3693 26.5921C66.4389 26.5741 66.5144 26.5382 66.593 26.4814C66.6716 26.4245 66.7472 26.3467 66.8167 26.248C66.8832 26.1522 66.9407 26.0326 66.986 25.892C67.0313 25.7513 67.0525 25.5808 67.0525 25.3863C67.0525 25.1829 67.0283 25.0123 66.986 24.8717C66.9437 24.7311 66.8862 24.6144 66.8167 24.5187C66.7472 24.4199 66.6716 24.3421 66.593 24.2853C66.5144 24.2285 66.4389 24.1926 66.3693 24.1746C66.3149 24.1596 66.2424 24.1477 66.1517 24.1417C66.061 24.1357 65.9824 24.1327 65.922 24.1327H65.6076V24.1297Z" fill="#777777"/>
<path d="M70.7404 27.002H68.9297V23.7617H70.7041V24.1297H69.365V25.126H70.6467V25.494H69.365V26.6339H70.7434V27.002H70.7404Z" fill="#777777"/>
<path d="M74.0323 26.1163C74.0323 26.4335 73.9265 26.6698 73.7179 26.8224C73.5093 26.975 73.2252 27.0528 72.8685 27.0528C72.7324 27.0528 72.5964 27.0378 72.4574 27.0079C72.3183 26.978 72.1944 26.9451 72.0886 26.9122V26.4754C72.1974 26.5262 72.3123 26.5681 72.4302 26.604C72.4997 26.625 72.5783 26.6459 72.6629 26.6639C72.7476 26.6818 72.8292 26.6908 72.9078 26.6908C72.9954 26.6908 73.077 26.6818 73.1526 26.6668C73.2282 26.6519 73.3007 26.622 73.3642 26.5771C73.4247 26.5412 73.4791 26.4903 73.5244 26.4215C73.5698 26.3557 73.5909 26.2719 73.5909 26.1732C73.5909 26.0804 73.5698 25.9997 73.5274 25.9338C73.4851 25.868 73.4368 25.8112 73.3823 25.7633C73.2645 25.6676 73.1375 25.5868 73.0075 25.5239C72.9138 25.4761 72.8141 25.4222 72.7052 25.3654C72.5964 25.3085 72.4906 25.2397 72.3909 25.1619C72.2911 25.0871 72.2095 24.9974 72.149 24.8986C72.0886 24.7999 72.0583 24.6862 72.0583 24.5576C72.0583 24.2644 72.1521 24.0489 72.3395 23.9113C72.5269 23.7737 72.7687 23.7079 73.065 23.7079C73.1405 23.7079 73.2191 23.7138 73.2947 23.7258C73.3703 23.7378 73.4398 23.7527 73.5033 23.7677C73.6212 23.7946 73.733 23.8245 73.8358 23.8575V24.2614C73.7511 24.2165 73.6332 24.1716 73.4791 24.1237C73.3249 24.0789 73.1768 24.0549 73.0317 24.0549C72.8806 24.0549 72.7536 24.0968 72.6478 24.1776C72.542 24.2584 72.4906 24.375 72.4906 24.5217C72.4906 24.5845 72.5057 24.6413 72.539 24.6892C72.5722 24.7371 72.6085 24.7819 72.6508 24.8208C72.6992 24.8657 72.7536 24.9076 72.811 24.9435C72.8715 24.9794 72.9319 25.0153 72.9954 25.0512C73.2161 25.1589 73.3823 25.2487 73.4942 25.3205C73.606 25.3893 73.6967 25.4581 73.7723 25.5209C73.8479 25.5868 73.9113 25.6676 73.9567 25.7603C73.999 25.856 74.0262 25.9727 74.0323 26.1163Z" fill="#777777"/>
<path d="M75.8732 27.002H75.4379V23.7617H75.8732V27.002Z" fill="#777777"/>
<path d="M79.7757 24.6892H79.3193C79.3193 24.5635 79.3011 24.4648 79.2649 24.393C79.2286 24.3212 79.1802 24.2584 79.1228 24.2075C79.0654 24.1626 78.9989 24.1267 78.9263 24.1028C78.8538 24.0789 78.7782 24.0639 78.7056 24.0609C78.5817 24.0609 78.4608 24.0878 78.3459 24.1387C78.231 24.1896 78.1313 24.2703 78.0406 24.378C77.9499 24.4887 77.8804 24.6324 77.829 24.8059C77.7776 24.9794 77.7534 25.15 77.7534 25.3235C77.7534 25.4342 77.7685 25.5688 77.7958 25.7244C77.823 25.88 77.8774 26.0356 77.956 26.1852C78.0285 26.3228 78.1373 26.4395 78.2764 26.5382C78.4154 26.6369 78.5938 26.6878 78.8145 26.6878C78.9293 26.6878 79.0412 26.6758 79.147 26.6489C79.2528 26.622 79.3102 26.607 79.3193 26.598V25.6167H78.5817V25.2427H79.7515V26.8045C79.5913 26.8883 79.4311 26.9511 79.2739 26.99C79.1167 27.0289 78.9323 27.0468 78.7208 27.0468C78.4729 27.0468 78.2613 26.996 78.0829 26.8913C77.9046 26.7895 77.7565 26.6549 77.6386 26.4903C77.5207 26.3228 77.436 26.1403 77.3847 25.9398C77.3333 25.7394 77.3091 25.5329 77.3091 25.3205C77.3091 25.1081 77.3363 24.9076 77.3877 24.7131C77.4421 24.5217 77.5267 24.3511 77.6446 24.2015C77.7595 24.0549 77.9076 23.9352 78.0829 23.8395C78.2583 23.7438 78.4668 23.6959 78.7056 23.6959C78.8507 23.6959 78.9868 23.7198 79.1167 23.7677C79.2467 23.8156 79.3616 23.8784 79.4553 23.9622C79.552 24.0459 79.6306 24.1477 79.6881 24.2614C79.7455 24.381 79.7757 24.5217 79.7757 24.6892Z" fill="#777777"/>
<path d="M83.4967 27.002H83.0101L81.7193 24.4229V27.002H81.3052V23.7617H81.7858L83.0826 26.3467V23.7617H83.4967V27.002Z" fill="#777777"/>
<path d="M87.4657 23.7617H88.1972C88.2909 23.7617 88.3907 23.7677 88.4995 23.7767C88.6083 23.7857 88.7051 23.8006 88.7897 23.8186C88.9257 23.8515 89.0497 23.9113 89.1645 23.9951C89.2794 24.0789 89.3822 24.1866 89.4729 24.3122C89.5635 24.4349 89.6361 24.5845 89.6905 24.761C89.7449 24.9405 89.7721 25.147 89.7721 25.3803C89.7721 25.6077 89.7449 25.8112 89.6905 25.9907C89.6361 26.1702 89.5635 26.3228 89.4729 26.4425C89.3822 26.5681 89.2794 26.6758 89.1645 26.7596C89.0497 26.8434 88.9227 26.9032 88.7897 26.9361C88.7051 26.9541 88.6083 26.969 88.4995 26.978C88.3907 26.99 88.2879 26.993 88.1972 26.993H87.4657V23.7617ZM87.8949 24.1297V26.6339H88.2093C88.2698 26.6339 88.3484 26.631 88.439 26.625C88.5297 26.619 88.6023 26.61 88.6567 26.5921C88.7262 26.5741 88.8018 26.5382 88.8804 26.4814C88.959 26.4245 89.0345 26.3467 89.1041 26.248C89.1706 26.1522 89.228 26.0326 89.2733 25.892C89.3187 25.7513 89.3398 25.5808 89.3398 25.3863C89.3398 25.1829 89.3157 25.0123 89.2733 24.8717C89.231 24.7311 89.1736 24.6144 89.1041 24.5187C89.0345 24.4199 88.959 24.3421 88.8804 24.2853C88.8018 24.2285 88.7262 24.1926 88.6567 24.1746C88.6023 24.1596 88.5297 24.1477 88.439 24.1417C88.3484 24.1357 88.2698 24.1327 88.2093 24.1327H87.8949V24.1297Z" fill="#777777"/>
<path d="M93.0277 27.002H91.217V23.7617H92.9914V24.1297H91.6523V25.126H92.934V25.494H91.6523V26.6339H93.0307V27.002H93.0277Z" fill="#777777"/>
<path d="M96.6853 27.002H96.1987L94.9079 24.4229V27.002H94.4938V23.7617H94.9744L96.2712 26.3467V23.7617H96.6853V27.002Z" fill="#777777"/>
<path d="M100.406 24.1297H99.4422V27.002H99.0099V24.1297H98.0457V23.7617H100.406V24.1297Z" fill="#777777"/>
<path d="M103.765 27.002H103.311L102.988 26.0056H101.9L101.582 27.002H101.129L102.223 23.7617H102.671L103.765 27.002ZM102.873 25.6376L102.45 24.3062L102.021 25.6376H102.873Z" fill="#777777"/>
<path d="M106.903 27.002H105.086V23.7617H105.518V26.6339H106.903V27.002Z" fill="#777777"/>
<path d="M112.951 24.6892H112.495C112.495 24.5635 112.477 24.4648 112.44 24.393C112.404 24.3212 112.356 24.2584 112.298 24.2075C112.241 24.1626 112.174 24.1267 112.102 24.1028C112.029 24.0789 111.954 24.0639 111.881 24.0609C111.757 24.0609 111.636 24.0878 111.524 24.1387C111.413 24.1896 111.31 24.2703 111.216 24.378C111.125 24.4887 111.056 24.6324 111.004 24.8059C110.953 24.9794 110.929 25.1529 110.929 25.3265C110.929 25.4402 110.941 25.5718 110.971 25.7274C110.998 25.883 111.053 26.0386 111.131 26.1881C111.213 26.3288 111.319 26.4455 111.458 26.5442C111.594 26.6429 111.772 26.6908 111.99 26.6908C112.144 26.6908 112.292 26.6639 112.434 26.613C112.576 26.5621 112.712 26.4873 112.848 26.3946V26.8404C112.809 26.8613 112.767 26.8823 112.718 26.9062C112.67 26.9301 112.607 26.9511 112.531 26.972C112.344 27.0229 112.135 27.0498 111.899 27.0498C111.651 27.0498 111.44 26.999 111.264 26.8972C111.089 26.7955 110.938 26.6609 110.817 26.4963C110.696 26.3318 110.608 26.1463 110.563 25.9458C110.515 25.7453 110.491 25.5389 110.491 25.3265C110.491 25.1141 110.518 24.9106 110.569 24.7191C110.624 24.5246 110.708 24.3541 110.826 24.2045C110.941 24.0579 111.089 23.9382 111.264 23.8425C111.44 23.7468 111.648 23.6989 111.887 23.6989C112.032 23.6989 112.168 23.7228 112.298 23.7707C112.428 23.8186 112.543 23.8814 112.637 23.9652C112.734 24.0489 112.812 24.1507 112.87 24.2644C112.921 24.381 112.951 24.5217 112.951 24.6892Z" fill="#777777"/>
<path d="M116.17 27.002H114.354V23.7617H114.786V26.6339H116.17V27.002Z" fill="#777777"/>
<path d="M117.939 27.002H117.504V23.7617H117.939V27.002Z" fill="#777777"/>
<path d="M121.711 27.002H121.225L119.934 24.4229V27.002H119.52V23.7617H120.001L121.297 26.3467V23.7617H121.711V27.002Z" fill="#777777"/>
<path d="M123.728 27.002H123.292V23.7617H123.728V27.002Z" fill="#777777"/>
<path d="M127.63 24.6892H127.174C127.174 24.5635 127.156 24.4648 127.119 24.393C127.083 24.3212 127.035 24.2584 126.977 24.2075C126.92 24.1626 126.853 24.1267 126.781 24.1028C126.708 24.0789 126.633 24.0639 126.56 24.0609C126.436 24.0609 126.315 24.0878 126.203 24.1387C126.092 24.1896 125.989 24.2703 125.895 24.378C125.804 24.4887 125.735 24.6324 125.683 24.8059C125.632 24.9794 125.608 25.1529 125.608 25.3265C125.608 25.4402 125.62 25.5718 125.65 25.7274C125.677 25.883 125.732 26.0386 125.81 26.1881C125.892 26.3288 125.998 26.4455 126.137 26.5442C126.273 26.6429 126.451 26.6908 126.669 26.6908C126.823 26.6908 126.971 26.6639 127.113 26.613C127.255 26.5621 127.391 26.4873 127.527 26.3946V26.8404C127.488 26.8613 127.446 26.8823 127.397 26.9062C127.349 26.9301 127.286 26.9511 127.21 26.972C127.023 27.0229 126.814 27.0498 126.578 27.0498C126.33 27.0498 126.119 26.999 125.943 26.8972C125.768 26.7955 125.617 26.6609 125.496 26.4963C125.375 26.3318 125.287 26.1463 125.242 25.9458C125.194 25.7453 125.17 25.5389 125.17 25.3265C125.17 25.1141 125.197 24.9106 125.248 24.7191C125.303 24.5246 125.387 24.3541 125.505 24.2045C125.62 24.0579 125.768 23.9382 125.943 23.8425C126.119 23.7468 126.327 23.6989 126.566 23.6989C126.711 23.6989 126.847 23.7228 126.977 23.7707C127.107 23.8186 127.222 23.8814 127.316 23.9652C127.413 24.0489 127.491 24.1507 127.549 24.2644C127.6 24.381 127.63 24.5217 127.63 24.6892Z" fill="#777777"/>
<path d="M43.816 6.74076C44.8316 6.74076 45.678 7.06089 46.3551 7.70116L46.3854 7.73108H49.7921V5.64572H51.4063V15.908H49.7921V12.4762H46.2373C45.5813 13.0477 44.7742 13.3349 43.816 13.3349C42.8003 13.3349 41.9539 13.0148 41.2768 12.3745C40.5997 11.7342 40.2611 10.9564 40.2611 10.0378C40.2611 9.12231 40.5997 8.34143 41.2768 7.70116C41.9539 7.06089 42.8003 6.74076 43.816 6.74076ZM43.816 8.11404C43.2567 8.11404 42.8003 8.30253 42.4406 8.67652C42.0809 9.05051 41.9025 9.50528 41.9025 10.0378C41.9025 10.5704 42.0809 11.0252 42.4406 11.3992C42.8003 11.7731 43.2567 11.9616 43.816 11.9616C44.3722 11.9616 44.8316 11.7731 45.1914 11.3992C45.5511 11.0252 45.7294 10.5704 45.7294 10.0378C45.7294 9.50528 45.5511 9.0535 45.1914 8.67652C44.8316 8.30253 44.3752 8.11404 43.816 8.11404ZM51.494 19.7226H43.8008V14.8428H45.4302V18.3314H51.497V19.7226H51.494ZM47.2529 9.11932C47.3315 9.40654 47.3738 9.71172 47.3738 10.0348C47.3738 10.4088 47.3194 10.7589 47.2106 11.085H49.7951V9.11932H47.2529Z" fill="#12429F"/>
<path d="M56.932 10.8786L59.8309 14.7381L58.5764 15.6267L56.2911 12.5062C55.7047 13.688 54.8674 14.768 53.7822 15.7434L52.6305 14.8129C54.5923 12.919 55.6291 10.7709 55.738 8.36536V7.07884H57.3522V7.9076C57.3401 8.95178 57.201 9.9421 56.932 10.8786ZM58.1713 10.0229H60.4566V5.94192H62.0255V18.466H60.4566V11.4111H58.1713V10.0229ZM64.7914 19.3516H63.2074V5.64572H64.7914V19.3516Z" fill="#12429F"/>
<path d="M74.0081 15.0642H66.7623V7.43488H73.0075V8.82612H68.3916V13.673H74.0081V15.0642ZM77.176 19.3516H75.5467V5.64572H77.176V19.3516Z" fill="#12429F"/>
<path d="M83.8231 11.5607L86.8399 14.5167L85.7034 15.537L82.9103 12.7425C82.0155 13.7777 80.8819 14.7501 79.5186 15.6566L78.4425 14.6364C81.2598 12.6857 82.9193 10.7469 83.4181 8.82612H79.2647V7.44984H85.3588C85.1834 8.9069 84.6695 10.2772 83.8231 11.5607ZM91.5918 12.18H89.231V19.3516H87.6017V5.64572H89.231V10.717H91.5918V12.18Z" fill="#12429F"/>
<path d="M95.6394 6.74076C96.6551 6.74076 97.5045 7.06089 98.1877 7.70116C98.8708 8.34143 99.2124 9.11932 99.2124 10.0378C99.2124 10.9534 98.8708 11.7342 98.1877 12.3745C97.5045 13.0148 96.6551 13.3349 95.6394 13.3349C94.6238 13.3349 93.7743 13.0148 93.0912 12.3745C92.408 11.7342 92.0695 10.9564 92.0695 10.0378C92.0695 9.12231 92.411 8.34143 93.0912 7.70116C93.7743 7.06089 94.6238 6.74076 95.6394 6.74076ZM95.6394 8.11404C95.0802 8.11404 94.6207 8.30253 94.258 8.67652C93.8953 9.05051 93.7139 9.50528 93.7139 10.0378C93.7139 10.5704 93.8953 11.0252 94.258 11.3992C94.6207 11.7731 95.0832 11.9616 95.6394 11.9616C96.1956 11.9616 96.6581 11.7731 97.0209 11.3992C97.3836 11.0252 97.565 10.5704 97.565 10.0378C97.565 9.50528 97.3836 9.0535 97.0209 8.67652C96.6581 8.30253 96.1987 8.11404 95.6394 8.11404ZM102.9 19.7226H95.2072V14.798H96.8365V18.3314H102.903V19.7226H102.9ZM101.183 15.7883V5.64572H102.813V15.7883H101.183Z" fill="#12429F"/>
<path d="M109.714 12.0634L112.567 14.5018L111.476 15.5818L108.728 13.1584C107.773 14.0739 106.531 14.9386 105.007 15.7464L103.991 14.7112C106.769 13.1434 108.453 11.6415 109.043 10.2024H104.919V8.81116H111.104C111.044 9.20609 110.95 9.60401 110.82 10.0079C110.59 10.717 110.222 11.4021 109.714 12.0634ZM110.267 8.02728H108.205C107.22 8.02728 106.358 7.81485 105.621 7.39L106.068 6.19324C106.963 6.48046 107.761 6.62108 108.459 6.62108H110.267V8.02728ZM115.212 19.3516H113.583V5.64572H115.212V19.3516Z" fill="#12429F"/>
<path d="M119.408 14.8129V10.9384H121.037V14.8129C121.554 14.8039 122.183 14.789 122.92 14.768C123.827 14.7381 124.761 14.6304 125.729 14.4419V15.8332C124.843 16.0216 123.942 16.1294 123.032 16.1593C122.122 16.1892 121.321 16.2042 120.635 16.2042H116.557V14.8129H119.408ZM124.383 7.28528C124.383 8.65558 124.329 9.81045 124.22 10.7529C124.111 11.6954 123.966 12.575 123.788 13.3918H122.174C122.313 12.6917 122.446 11.9317 122.57 11.1059C122.694 10.2802 122.757 9.47237 122.757 8.67353H117.573V7.28229H124.383V7.28528ZM130 12.3296H127.639V19.3546H126.01V5.64572H127.639V10.9384H130V12.3296Z" fill="#12429F"/>
<path d="M23.1278 30.4486C23.3212 30.3589 23.4028 30.1225 23.3061 29.922C23.2094 29.7216 22.9706 29.6348 22.7801 29.7276C22.5897 29.8203 22.5051 30.0597 22.6018 30.2571C22.6985 30.4576 22.9343 30.5414 23.1278 30.4486Z" fill="#12429F"/>
<path d="M6.40839 26.3108C6.38421 26.3288 6.36305 26.3497 6.33887 26.3647C6.46885 26.5113 6.62301 26.6878 6.62301 26.6878L6.80741 26.5322C6.80741 26.5322 6.64115 26.3467 6.51419 26.2001C6.48094 26.242 6.44467 26.2779 6.40839 26.3108Z" fill="#12429F"/>
<path d="M5.58625 25.3773C5.39884 25.5389 5.36861 25.8082 5.51975 25.9757C5.66787 26.1463 5.94295 26.1552 6.12734 25.9937C6.31476 25.8351 6.34196 25.5628 6.19384 25.3953C6.03968 25.2247 5.77065 25.2158 5.58625 25.3773Z" fill="#12429F"/>
<path d="M3.34625 11.8031C2.9956 11.6954 2.65704 11.7073 2.39708 11.839C2.19152 11.9437 2.05247 12.1142 1.97992 12.3267C1.89529 12.5959 1.8711 13.0926 2.68424 13.3469C3.34322 13.5533 3.92058 13.326 4.09289 12.7874C4.12311 12.6917 4.15939 12.5002 4.05661 12.2997C3.94779 12.0843 3.70899 11.9168 3.34625 11.8031Z" fill="#12429F"/>
<path d="M27.5743 6.60913C27.662 6.69589 27.6983 6.71384 27.7618 6.72581C27.8434 6.73778 28.0126 6.72581 28.2182 6.52236C28.5326 6.20821 28.4026 5.92099 28.2787 5.79832L28.1668 5.6936L27.4081 6.45055L27.5743 6.60913Z" fill="#12429F"/>
<path d="M17.1727 0C7.70521 0 0 7.62337 0 16.994C0 26.3677 7.70521 34 17.1727 34C26.6463 34 34.3454 26.3677 34.3454 16.994C34.3454 7.62337 26.6463 0 17.1727 0ZM31.2742 9.64889L31.377 9.59803L31.8244 10.5046L31.7186 10.5554C31.6309 10.3759 31.5916 10.3131 31.4496 10.3849C31.4496 10.3849 29.8898 11.1419 29.7175 11.2286C29.5482 11.3094 29.651 11.471 29.7235 11.6146L29.6238 11.6624L29.1401 10.6871L29.2459 10.6362C29.3336 10.8097 29.3729 10.8816 29.518 10.8127C29.518 10.8127 31.1564 10.0169 31.2501 9.96902C31.4345 9.87628 31.2742 9.64889 31.2742 9.64889ZM29.1462 8.82313L29.1583 8.64062C29.1885 8.20979 29.2973 7.96146 29.5301 7.79989C29.8414 7.59046 30.2344 7.70415 30.4944 8.07814C30.709 8.39229 30.6999 8.54189 30.6999 8.54189L30.2555 8.84108L30.177 8.72439C30.177 8.72439 30.316 8.66156 30.3644 8.50598C30.3886 8.43119 30.4067 8.31151 30.3009 8.15892C30.18 7.9824 30.0016 7.93453 29.8505 8.03925C29.7477 8.10806 29.6933 8.20679 29.6721 8.55385L29.6661 8.66455C29.6359 9.1642 29.5331 9.40356 29.2731 9.58008C29.1552 9.65787 28.9134 9.77156 28.6111 9.6459C28.457 9.58008 28.3209 9.46339 28.203 9.28986C28.0942 9.13129 27.9733 8.89493 28.0005 8.7573L28.5114 8.41024L28.5809 8.51795C28.5809 8.51795 28.4449 8.64062 28.4086 8.6855C28.2363 8.89792 28.33 9.10137 28.4026 9.20609C28.5507 9.42151 28.7744 9.43946 28.9074 9.3497C29.0434 9.26294 29.128 9.14027 29.1462 8.82313ZM27.7798 5.03538L28.463 5.70556C28.6021 5.84618 28.7532 6.01074 28.7955 6.23214C28.8137 6.32189 28.8076 6.5403 28.6383 6.71383C28.4509 6.89933 28.2061 6.96815 27.8282 6.93224C27.8222 6.96815 27.8101 7.08483 27.8101 7.08483C27.7678 7.4648 27.7345 7.761 27.7315 7.99736C27.7285 8.2397 27.801 8.34741 27.8282 8.3893L27.8826 8.45512L27.8071 8.52992L27.5713 8.30253C27.4443 8.17388 27.3959 8.10806 27.3627 8.00933C27.3174 7.85973 27.3325 7.67423 27.3808 7.3541L27.4715 6.8006L27.2629 6.59416L26.7491 7.11176C26.613 7.2434 26.7642 7.36008 26.8821 7.47677L26.8035 7.55755L26.0266 6.79162L26.1082 6.70486C26.2503 6.84548 26.3108 6.89933 26.4226 6.78564C26.4226 6.78564 27.7073 5.50211 27.7798 5.42731C27.9249 5.2837 27.6982 5.11915 27.6982 5.11915L27.7798 5.03538ZM25.3979 3.37487L26.7279 4.25449L26.4468 4.67335L26.35 4.61052C26.4438 4.47589 26.5042 4.36818 26.3198 4.24551C26.2382 4.19166 25.9299 3.98821 25.9299 3.98821L25.4644 4.67036L25.8634 4.93664C25.9964 5.0264 26.0296 4.98152 26.1264 4.84389L26.2261 4.90972L25.8483 5.46322L25.7515 5.3944C25.8483 5.25678 25.8755 5.20891 25.7394 5.11915L25.3404 4.85287V4.85586L24.7872 5.67265C24.7872 5.67265 25.1228 5.89405 25.2135 5.95389C25.3525 6.04664 25.4825 6.03168 25.6185 5.82823L25.7153 5.89704L25.4099 6.35181L24.0497 5.45125L24.1192 5.34653C24.2764 5.45125 24.3368 5.51408 24.485 5.29268C24.485 5.29268 25.3495 4.01214 25.4795 3.81767C25.6064 3.63217 25.422 3.52446 25.3344 3.46762L25.3979 3.37487ZM22.2934 1.88191L23.1579 2.2529L23.1126 2.3636L23.0249 2.3277C22.9826 2.30975 22.9524 2.32471 22.9463 2.33369C22.9222 2.35164 22.9252 2.4025 22.9222 2.42344L22.904 2.76153C22.8859 3.14449 22.8405 4.02411 22.8405 4.08694C22.898 4.03309 23.2879 3.64713 23.2879 3.64713L23.9801 2.95899C24.0225 2.90813 24.0618 2.85727 24.0708 2.81837C24.0769 2.79145 24.0557 2.76751 24.0285 2.75255L23.9408 2.71665L23.9892 2.61193L24.7268 2.93207L24.6966 3.04875L24.6149 3.01285C24.4578 2.94403 24.3036 3.07867 24.3036 3.07867L23.829 3.50053L22.5141 4.70028L22.4173 4.6554L22.4566 2.36061C22.4627 2.24692 22.4445 2.14819 22.4113 2.09733C22.369 2.03749 22.2481 1.98662 22.2481 1.98662L22.2934 1.88191ZM19.8782 3.71894C20.0716 3.76082 20.1502 3.77578 20.1865 3.6202C20.1865 3.6202 20.6006 1.85797 20.6218 1.76223C20.6671 1.55878 20.386 1.53784 20.386 1.53784L20.4102 1.42714L21.4017 1.65452L21.3805 1.76522C21.1901 1.72334 21.1115 1.70838 21.0752 1.86396C21.0752 1.86396 20.6853 3.54541 20.6399 3.72193C20.5976 3.90443 20.785 3.92538 20.9482 3.96427L20.921 4.07497L19.854 3.82964L19.8782 3.71894ZM16.3384 3.3988C16.4835 3.40778 16.6316 3.43171 16.6498 3.16244C16.6649 2.8842 16.7767 1.0711 16.7767 1.0711L16.9309 1.08307C17.2029 1.39423 18.5028 2.89616 18.5481 2.94703C18.5481 2.94703 18.6176 1.78916 18.6328 1.54083C18.6479 1.2925 18.4484 1.2925 18.3244 1.28054L18.3305 1.16684L19.1769 1.21771L19.1678 1.33738C19.0348 1.32841 18.9018 1.30746 18.8867 1.55579C18.8746 1.80412 18.7567 3.66508 18.7567 3.66508L18.5904 3.65312L16.9883 1.81908L16.9067 3.17441C16.8856 3.46463 17.0972 3.44667 17.2604 3.45565L17.2543 3.57533L16.3354 3.51848L16.3384 3.3988ZM13.769 1.46603L13.7932 1.58272C13.5997 1.61862 13.5211 1.63956 13.5544 1.79514L13.7751 2.87821C13.8748 3.37487 14.0229 3.5095 14.165 3.58729C14.3222 3.66807 14.4582 3.6591 14.5731 3.63217C14.6487 3.61721 14.8421 3.56336 14.96 3.38983C15.09 3.19236 15.0477 2.92309 14.9812 2.59398C14.9812 2.59398 14.7786 1.59169 14.7726 1.54981C14.7303 1.34935 14.4643 1.44509 14.4643 1.44509L14.4401 1.33738L15.3076 1.16385L15.3288 1.27455C15.1353 1.31644 15.0628 1.33439 15.093 1.48997L15.2925 2.47131C15.3651 2.83633 15.4013 3.21031 15.1777 3.49454C14.9812 3.74886 14.7393 3.82066 14.5519 3.86255C14.4129 3.88948 14.0834 3.9553 13.7871 3.78177C13.5544 3.64414 13.4093 3.39581 13.3247 2.98891C13.3247 2.98891 13.11 1.93277 13.101 1.8849C13.0586 1.68444 12.7926 1.78018 12.7926 1.78018L12.7685 1.66649L13.769 1.46603ZM10.1688 2.69571L10.2202 2.79743C10.0449 2.88719 9.97838 2.92608 10.0509 3.06969C10.0509 3.06969 10.8459 4.60155 10.9336 4.7661C11.0213 4.93365 11.1815 4.82893 11.3266 4.75114L11.3779 4.85287L10.4046 5.34653L10.3502 5.2478C10.5255 5.15804 10.5981 5.11616 10.5255 4.97554C10.5255 4.97554 9.69121 3.36888 9.64586 3.27614C9.54913 3.09363 9.3194 3.25818 9.3194 3.25818L9.26801 3.15646L10.1688 2.69571ZM8.17677 3.77279L8.47905 4.17969L8.38534 4.2485C8.28559 4.11686 8.207 4.0271 8.02865 4.15576C7.95308 4.2126 7.65382 4.434 7.65382 4.434L8.15258 5.09521L8.53648 4.81098C8.66647 4.71524 8.63624 4.66737 8.53648 4.52974L8.63019 4.46392L9.02921 4.99648L8.93852 5.06529C8.83574 4.93066 8.79947 4.88877 8.66647 4.9875L8.28559 5.26874C8.28559 5.27174 8.28559 5.27174 8.28559 5.27174L8.88109 6.05861C8.88109 6.05861 9.20453 5.81925 9.29522 5.75642C9.42822 5.6547 9.45543 5.52904 9.30731 5.33756L9.40102 5.26874L9.73655 5.70556L8.42464 6.67494L8.34907 6.57621C8.50021 6.46551 8.5788 6.43259 8.41859 6.22017C8.41859 6.22017 7.48756 4.98451 7.34549 4.79901C7.20644 4.61651 7.04623 4.75414 6.95856 4.81996L6.89206 4.72721L8.17677 3.77279ZM5.59829 5.91799C5.8643 5.63974 6.01544 5.62179 6.01544 5.62179L6.40236 5.98979L6.30563 6.08853C6.30563 6.08853 6.21192 5.97184 6.05171 5.95688C5.97312 5.94791 5.84918 5.95389 5.71618 6.08853C5.56806 6.2441 5.55899 6.42362 5.692 6.55227C5.78268 6.63604 5.8915 6.67195 6.23611 6.6151L6.34795 6.59715C6.84672 6.52235 7.10064 6.57321 7.33037 6.78863C7.43315 6.88736 7.59638 7.0968 7.53593 7.41693C7.5057 7.58448 7.41501 7.73706 7.26992 7.88666C7.13691 8.02728 6.92229 8.18884 6.78324 8.19483L6.33586 7.77297L6.42352 7.68321C6.42352 7.68321 6.57466 7.78793 6.62605 7.81485C6.87393 7.94051 7.05529 7.80588 7.14598 7.71313C7.32735 7.52464 7.29712 7.30324 7.17923 7.19254C7.06739 7.08782 6.92834 7.02499 6.61396 7.07286L6.42655 7.09979C5.99428 7.16262 5.72525 7.10577 5.5197 6.9113C5.25066 6.651 5.27787 6.2471 5.59829 5.91799ZM2.99261 9.44843C3.40069 9.35868 5.35344 8.93383 5.41692 8.92186C5.41692 8.92186 4.41938 8.31151 4.20476 8.17687C3.99014 8.04523 3.89643 8.22175 3.82691 8.32647L3.72715 8.26663L4.17453 7.55157L4.27429 7.6114C4.20174 7.7251 4.12012 7.82981 4.33474 7.96445C4.54937 8.0931 6.15147 9.07145 6.15147 9.07145L6.06381 9.21507L3.66972 9.74762L4.83956 10.4657C5.09045 10.6153 5.17207 10.4238 5.25671 10.2892L5.35949 10.349L4.87281 11.1239L4.77306 11.0641C4.84863 10.9414 4.93931 10.8247 4.70655 10.6811C4.46775 10.5375 2.90494 9.58307 2.90494 9.58307L2.99261 9.44843ZM3.177 21.4998C2.91099 21.4998 2.69637 21.2814 2.69637 21.0181C2.69637 20.7578 2.91099 20.5394 3.177 20.5394C3.44603 20.5394 3.66065 20.7578 3.66065 21.0181C3.66065 21.2814 3.44603 21.4998 3.177 21.4998ZM3.60926 16.2071L3.50044 16.1952C3.51556 16.0396 3.5216 15.9259 3.31303 15.9109C3.10445 15.893 2.77496 15.8631 2.77496 15.8631C2.60871 15.8481 2.5422 15.8691 2.43943 15.902C2.39408 15.9199 1.65047 16.279 1.47212 16.3747C1.35725 16.4375 1.26657 16.5063 1.22727 16.5662C1.17588 16.638 1.16681 16.7666 1.16681 16.7666L1.05497 16.7547L1.13659 15.8361L1.24843 15.8511C1.24843 15.8511 1.24238 15.905 1.24541 15.9229L1.24843 15.9409C1.25145 15.9588 1.26354 15.9648 1.27866 15.9648C1.30284 15.9708 1.36028 15.9468 1.37841 15.9409C1.45701 15.9109 2.33363 15.51 2.33363 15.51C2.33363 15.51 1.59303 15.0074 1.54769 14.9835C1.48723 14.9505 1.43887 14.9296 1.39655 14.9266C1.36632 14.9266 1.33912 14.9446 1.33912 14.9655C1.33609 14.9864 1.33307 15.0493 1.33307 15.0493L1.21216 15.0373L1.28773 14.2295L1.4026 14.2415C1.4026 14.2415 1.39655 14.2983 1.39655 14.3282C1.39353 14.3641 1.39957 14.409 1.42073 14.4599C1.44491 14.5227 1.47514 14.5556 1.55374 14.6334C1.67767 14.7471 2.38502 15.2587 2.51198 15.3275C2.61777 15.3844 2.71451 15.3933 2.8203 15.3993C2.8203 15.3993 3.11352 15.4233 3.35232 15.4472C3.59113 15.4711 3.59113 15.3006 3.60624 15.1211L3.70902 15.1301L3.60926 16.2071ZM2.63289 13.8435C2.29735 13.7388 2.01925 13.5114 1.86811 13.2182C1.71092 12.919 1.69581 12.563 1.81672 12.1771C1.94066 11.7851 2.16435 11.4979 2.46059 11.3453C2.72962 11.2047 3.05004 11.1927 3.3886 11.2974C3.74831 11.4111 4.03246 11.6415 4.19267 11.9437C4.35288 12.2518 4.37706 12.6079 4.25615 12.9759C3.9841 13.8316 3.22234 14.026 2.63289 13.8435ZM5.56202 28.2346C5.54388 28.2107 4.1836 26.6639 4.16244 26.6399C4.18058 26.622 4.66121 26.2121 4.66121 26.2121C4.73074 26.1522 4.76399 26.0565 4.73074 26.0176C4.74283 26.0056 4.76399 25.9877 4.77608 25.9787C4.79422 25.9967 5.1358 26.3856 5.1358 26.3856C5.11766 26.4036 4.71864 26.7446 4.71864 26.7446C4.71864 26.7446 5.80384 27.9803 5.825 28.0012C5.80384 28.0222 5.5862 28.2137 5.56202 28.2346ZM6.10915 27.717C6.09101 27.6961 5.83407 27.4058 5.81593 27.3849C5.83709 27.3669 6.36004 26.9152 6.36004 26.9152C6.36004 26.9152 6.11217 26.6339 5.98521 26.4873C5.73432 26.5053 5.46528 26.4036 5.28089 26.1911C4.97558 25.8471 4.9907 25.3414 5.31112 25.0692C5.62852 24.7939 6.13333 24.8478 6.43864 25.1888C6.60489 25.3803 6.67744 25.6167 6.65326 25.8381C6.72883 25.9249 7.06436 26.3048 7.06436 26.3048L7.14296 26.236C7.21551 26.1762 7.24876 26.0804 7.21551 26.0415C7.2276 26.0296 7.24876 26.0116 7.26085 25.9996C7.27899 26.0206 7.60243 26.3886 7.62056 26.4095C7.59941 26.4245 6.13031 27.6991 6.10915 27.717ZM9.8363 29.9669L9.83026 29.9549L9.81817 29.9639C9.38892 30.2033 9.07455 30.2362 9.07455 30.2362C9.0685 30.2182 8.98084 30.0028 8.96875 29.9759C9.90885 29.6677 10.2262 28.9916 10.2323 28.9796V28.9766C10.326 28.7731 10.2172 28.6894 10.2142 28.6864C10.2172 28.6714 10.2293 28.6415 10.2353 28.6295C10.2625 28.6445 10.7976 28.8868 10.8217 28.8988C10.6585 29.2489 10.4288 29.5331 10.1174 29.7665L10.1084 29.7724L10.1204 29.7994C10.2837 30.0986 10.4016 30.3798 10.4499 30.5892C10.4318 30.6012 10.1235 30.7747 10.0842 30.7957C9.99651 30.296 9.89978 30.0986 9.8363 29.9669ZM10.2142 31.5796C10.2262 31.5496 10.9155 30.0716 10.9155 30.0716C10.9155 30.0716 10.5164 29.8891 10.4923 29.8772C10.5043 29.8562 10.6253 29.5929 10.6374 29.566C10.6615 29.578 11.0606 29.7575 11.0606 29.7575L11.2752 29.2937C11.3145 29.213 11.3084 29.1112 11.2631 29.0873H11.2601C11.2661 29.0723 11.2782 29.0454 11.2873 29.0304C11.3114 29.0424 11.7346 29.2369 11.7346 29.2369C11.7195 29.2668 10.586 31.7142 10.5709 31.7411C10.5497 31.7321 10.2414 31.5885 10.2142 31.5796ZM11.1482 32.0014C11.121 31.9924 10.7673 31.8279 10.7401 31.8189C10.7522 31.792 11.8888 29.3446 11.9039 29.3147C11.9311 29.3237 12.309 29.4972 12.309 29.4972H12.312C12.2969 29.5271 11.1573 31.9775 11.1482 32.0014ZM18.4302 33.1054C18.4 33.1054 18.0131 33.1054 17.9828 33.1054C17.9828 33.0755 17.9828 31.4479 17.9828 31.4479H17.7803C17.7803 31.4479 17.7803 33.0785 17.7803 33.1054C17.7531 33.1054 17.3934 33.1054 17.3662 33.1054C17.3662 33.0964 17.3662 32.8721 17.3662 32.5609C17.0579 32.5609 15.8789 32.5609 15.8517 32.5609C15.8517 32.531 15.8517 30.658 15.8517 30.658C15.8517 30.5653 15.8034 30.4785 15.752 30.4785C15.752 30.4606 15.752 30.4337 15.752 30.4187C15.7792 30.4187 16.9793 30.4187 17.0065 30.4187C17.0065 30.4426 17.0065 30.7328 17.0065 30.7598C16.9793 30.7598 16.2991 30.7598 16.2991 30.7598V32.2168C16.2991 32.2168 17.1153 32.2168 17.3662 32.2168C17.3662 31.4928 17.3662 30.5892 17.3662 30.5892C17.3662 30.4965 17.3148 30.4097 17.2664 30.4097C17.2664 30.3918 17.2664 30.3648 17.2664 30.3499C17.2936 30.3499 17.7531 30.3499 17.7803 30.3499C17.7803 30.3768 17.7803 31.1038 17.7803 31.1038H17.9828C17.9828 31.1038 17.9828 30.3768 17.9828 30.3499C18.0131 30.3499 18.4302 30.3499 18.4302 30.3499C18.4302 30.3798 18.4302 33.0755 18.4302 33.1054ZM22.239 30.4307C22.1544 30.2541 22.1604 30.0597 22.239 29.8801C22.0818 29.9549 21.973 30.0088 21.9669 30.0088C21.9548 29.9879 21.8309 29.7216 21.8158 29.7006C21.843 29.6887 22.4173 29.4164 22.4173 29.4164L22.4083 29.4014C22.3629 29.3296 22.2934 29.2878 22.2541 29.3027V29.3057C22.245 29.2878 22.2329 29.2638 22.2269 29.2489C22.2511 29.2369 22.7196 29.0185 22.7196 29.0185C22.7317 29.0394 22.8224 29.2279 22.8224 29.2279C22.8224 29.2279 23.3574 28.9706 23.3846 28.9586C23.3937 28.9826 23.5207 29.2429 23.5297 29.2668C23.5237 29.2728 23.4058 29.3296 23.2305 29.4104C23.4179 29.4613 23.5811 29.581 23.6627 29.7545C23.826 30.0986 23.6446 30.5324 23.2516 30.7209C22.8617 30.9004 22.4052 30.7747 22.239 30.4307ZM24.76 29.9549C24.7359 29.9669 24.3852 30.1345 24.361 30.1494C24.3489 30.1195 23.7716 28.9407 23.7716 28.9407C23.7323 28.8569 23.6507 28.8001 23.6023 28.821V28.824C23.5962 28.8061 23.5811 28.7791 23.5751 28.7672C23.5993 28.7522 24.0436 28.5428 24.0678 28.5308C24.0799 28.5577 24.4064 29.2249 24.4064 29.2249C24.4064 29.2249 24.7752 29.0454 24.7993 29.0334C24.8114 29.0604 24.9263 29.2907 24.9354 29.3147C24.9082 29.3266 24.5394 29.5002 24.5394 29.5002C24.5394 29.5002 24.7449 29.931 24.76 29.9549ZM24.8689 31.2056C24.8568 31.1816 24.6119 30.67 24.6119 30.67C24.6119 30.67 22.9554 31.4539 22.9312 31.4688C22.9191 31.4449 22.7922 31.1846 22.7801 31.1577C22.8073 31.1487 24.8356 30.1793 24.8658 30.1674C24.8779 30.1943 25.2618 30.9901 25.2769 31.0111C25.2497 31.026 24.8961 31.1936 24.8689 31.2056ZM17.1727 29.3865C10.2595 29.3865 4.65819 23.8395 4.65819 17C4.65819 10.1545 10.2625 4.61052 17.1727 4.61052C24.0859 4.61052 29.6903 10.1545 29.6903 17C29.6903 23.8395 24.0829 29.3865 17.1727 29.3865ZM28.7865 28.1987C28.7653 28.1807 28.5416 27.9923 28.5204 27.9773C28.5386 27.9593 28.8378 27.5973 28.8378 27.5973L28.2726 27.1366C28.2 27.0767 28.0972 27.0558 28.067 27.0977C28.0519 27.0857 28.0338 27.0678 28.0187 27.0558C28.0368 27.0378 28.3149 26.7027 28.333 26.6758C28.3572 26.6968 29.0857 27.2951 29.0857 27.2951L29.2338 27.1216C29.2338 27.1216 28.5023 26.5202 28.4811 26.5023C28.4993 26.4813 28.7351 26.2001 28.7532 26.1762C28.7744 26.1941 29.5089 26.7955 29.5089 26.7955C29.5089 26.7955 29.6026 26.6788 29.7235 26.5322C29.4031 26.2659 28.2786 25.3474 28.2786 25.3474C28.2786 25.3474 27.1813 26.6519 27.1662 26.6728C27.1451 26.6579 26.9214 26.4724 26.9002 26.4544C26.9183 26.4305 28.2968 24.7879 28.2968 24.7879H28.2998C28.3179 24.8029 29.654 25.8949 30.0107 26.1941C30.1074 26.0834 30.177 25.9967 30.183 25.9877C30.2011 26.0056 30.4279 26.1941 30.449 26.2061C30.4339 26.23 28.8076 28.1748 28.7865 28.1987ZM30.4671 13.7687L30.3583 13.7987L30.047 12.7545L30.1588 12.7246C30.2163 12.9101 30.2404 12.9879 30.3976 12.943C30.3976 12.943 32.0209 12.4673 32.305 12.3865C32.2023 12.0364 32.1781 11.9616 32.166 11.9227C32.1025 11.7103 31.9816 11.7163 31.8123 11.7402L31.7791 11.6176L32.2869 11.5458L32.8824 13.5414L32.4169 13.7538L32.3776 13.6251C32.5317 13.5563 32.6406 13.4965 32.5771 13.29C32.565 13.2511 32.5408 13.1734 32.438 12.8263C32.1902 12.8981 30.6939 13.3349 30.5276 13.3828C30.3432 13.4366 30.4188 13.6102 30.4671 13.7687ZM31.3377 21.5716C31.0657 21.5716 30.851 21.3532 30.851 21.0869C30.851 20.8207 31.0657 20.6023 31.3377 20.6023C31.6098 20.6023 31.8274 20.8207 31.8274 21.0869C31.8274 21.3532 31.6098 21.5716 31.3377 21.5716ZM33.1484 16.6918C33.1484 16.6589 33.1303 16.6111 33.1 16.5692C33.0668 16.5093 33.0275 16.4854 32.9368 16.4226C32.7978 16.3298 32.0027 15.9648 31.8637 15.9229C31.7519 15.884 31.6551 15.896 31.5554 15.908C31.5554 15.908 31.2591 15.9319 31.0233 15.9588C30.7845 15.9798 30.8148 16.1443 30.8329 16.3268L30.7301 16.3358L30.6213 15.2647L30.7301 15.2497C30.7452 15.4113 30.7634 15.522 30.9689 15.5011C31.1745 15.4801 31.507 15.4472 31.507 15.4472C31.6763 15.4322 31.7367 15.3963 31.8274 15.3425C31.8697 15.3215 32.5317 14.8279 32.6889 14.7022C32.7887 14.6184 32.8643 14.5317 32.8945 14.4718C32.9308 14.3881 32.9126 14.2624 32.9126 14.2624L33.0275 14.2534L33.1182 15.16L33.0063 15.1749C33.0063 15.1749 33.0033 15.1211 32.9942 15.0971L32.9882 15.0852C32.9821 15.0672 32.967 15.0642 32.958 15.0672C32.9338 15.0672 32.8824 15.0971 32.8643 15.1091C32.7887 15.154 32.0058 15.7135 32.0058 15.7135C32.0058 15.7135 32.834 16.0665 32.8824 16.0815C32.9489 16.1054 33.0003 16.1114 33.0396 16.1054C33.0698 16.1054 33.091 16.0815 33.0849 16.0605C33.0849 16.0396 33.0789 15.9768 33.0789 15.9768L33.1998 15.9678L33.2814 16.7756L33.1635 16.7876C33.1605 16.7786 33.1544 16.7188 33.1484 16.6918Z" fill="#12429F"/>
<path d="M18.004 11.8689L21.5166 13.7688L22.765 11.1718H19.328L18.004 11.8689Z" fill="#12429F"/>
<path d="M23.5207 11.5697L22.4355 13.8256H25.1924L23.5207 11.5697Z" fill="#12429F"/>
<path d="M17.1002 12.3446L14.283 13.8256H19.8389L17.1002 12.3446Z" fill="#12429F"/>
<path d="M16.2055 11.8569L14.9359 11.1718H11.5775L12.7655 13.667L16.2055 11.8569Z" fill="#12429F"/>
<path d="M15.4861 21.3712L12.3 14.6723H9.2832L15.4861 21.3712Z" fill="#12429F"/>
<path d="M9.1532 13.8256H11.8979L10.8248 11.5727L9.1532 13.8256Z" fill="#12429F"/>
<path d="M21.0813 14.6723H13.2461L17.1425 22.8671L21.0813 14.6723Z" fill="#12429F"/>
<path d="M22.0275 14.6723L18.7507 21.4909L25.0654 14.6723H22.0275Z" fill="#12429F"/>
<path d="M16.5924 23.8186L9.50085 16.1593L13.6512 26.996L16.5924 23.8186Z" fill="#12429F"/>
<path d="M20.6944 26.996L24.8478 16.1593L17.7532 23.8186L20.6944 26.996Z" fill="#12429F"/>
<path d="M11.9875 8.55514L11.2458 9.28925L11.9875 10.0234L12.7292 9.28925L11.9875 8.55514Z" fill="#12429F"/>
<path d="M17.1735 6.9953L16.4318 7.7294L17.1735 8.46351L17.9151 7.7294L17.1735 6.9953Z" fill="#12429F"/>
<path d="M22.3585 8.55455L21.6168 9.28865L22.3585 10.0228L23.1002 9.28865L22.3585 8.55455Z" fill="#12429F"/>
</svg>
